<?xml version="1.0" encoding="utf-8"?>
<!-- Generator: Adobe Illustrator 21.0.2, SVG Export Plug-In . SVG Version: 6.00 Build 0)  -->
<svg version="1.1" id="Layer_1" xmlns="http://www.w3.org/2000/svg" xmlns:xlink="http://www.w3.org/1999/xlink" x="0px" y="0px"
	 viewBox="0 0 48.2 48.2" style="enable-background:new 0 0 48.2 48.2;" xml:space="preserve">
<style type="text/css">
	.st0{fill:#333;}
</style>
<g>
	<path class="st0" d="M12.6,26.3l4.6-1.1c-0.1-0.4-0.1-0.8-0.1-1.2c0-1.5,0.5-2.9,1.4-4l-2.8-3.3c-0.8-1-1.8-1.4-2.9-1.4
		c-1,0-1.8,0.4-2.5,1.3c-0.5,0.7-1,1.7-1.5,3.1c-0.5,1.4-0.7,2.6-0.7,3.5c0,0.9,0.3,1.7,1,2.3c0.6,0.6,1.4,0.9,2.4,0.9
		C11.9,26.5,12.2,26.4,12.6,26.3z"/>
	<path class="st0" d="M20.8,18.3c0.9-0.4,1.8-0.7,2.9-0.7c1,0,2,0.2,2.9,0.7l2.2-3.6c0.4-0.7,0.7-1.4,0.7-2.1c0-0.9-0.3-1.6-0.8-2.2
		c-0.5-0.5-1.1-0.8-1.8-1c-0.7-0.2-1.8-0.3-3-0.3c-1.2,0-2.3,0.1-3,0.3c-0.8,0.2-1.4,0.5-1.8,1C18.3,11,18,11.7,18,12.6
		c0,0.7,0.2,1.4,0.7,2.1L20.8,18.3z"/>
	<path class="st0" d="M30.2,24.1c0,0.4,0,0.8-0.1,1.2l4.6,1.1c0.4,0.1,0.8,0.1,1.1,0.1c1,0,1.8-0.3,2.4-0.9c0.6-0.6,1-1.4,1-2.4
		c0-0.9-0.2-2.1-0.7-3.5c-0.5-1.4-1-2.4-1.5-3.1c-0.7-0.8-1.5-1.3-2.5-1.3c-1.1,0-2,0.5-2.9,1.5l-2.8,3.3
		C29.6,21.2,30.2,22.6,30.2,24.1z"/>
	<path class="st0" d="M33.6,29.8l-4.6-2c-0.9,1.3-2.3,2.3-4,2.6l0.4,5.2c0.1,1.1,0.5,1.9,1,2.5c0.6,0.6,1.3,0.9,2.3,0.9
		c1.2,0,2.7-0.7,4.6-2.2c1-0.8,1.7-1.5,2.1-2.1c0.4-0.6,0.6-1.2,0.6-1.9c0-0.7-0.2-1.3-0.6-1.8C34.9,30.6,34.3,30.1,33.6,29.8z"/>
	<path class="st0" d="M18.4,27.8l-4.6,2c-0.8,0.3-1.4,0.8-1.8,1.3c-0.4,0.5-0.6,1.2-0.6,1.8c0,0.7,0.2,1.3,0.6,1.9
		c0.4,0.6,1.1,1.3,2.1,2.1c1.9,1.5,3.4,2.2,4.6,2.2c0.9,0,1.7-0.3,2.3-0.9c0.6-0.6,0.9-1.5,1-2.5l0.4-5.2
		C20.7,30.1,19.3,29.2,18.4,27.8z"/>
	<circle class="st0" cx="23.7" cy="24.1" r="3.8"/>
	<path class="st0" d="M46.7,34l-3-2c1-2.4,1.5-5.1,1.5-7.9c0-11.9-9.6-21.5-21.5-21.5c-2.2,0-4.4,0.3-6.4,1L8.1,4.5l1.7,3.2
		c-4.7,3.9-7.6,9.8-7.6,16.4c0,11.9,9.6,21.5,21.5,21.5c6.8,0,12.9-3.2,16.8-8.1L46.7,34z M23.7,43.5c-10.7,0-19.4-8.7-19.4-19.4
		c0-5.8,2.6-11,6.6-14.6l1.7,3.2l4.5-6.9c2.1-0.7,4.3-1.2,6.6-1.2c10.7,0,19.4,8.7,19.4,19.4c0,2.4-0.4,4.6-1.2,6.7l-2.8-1.9
		l-1.3,8.4C34.3,41.2,29.3,43.5,23.7,43.5z"/>
</g>
</svg>
