<?xml version="1.0" encoding="utf-8"?>
<!-- Generator: Adobe Illustrator 21.0.2, SVG Export Plug-In . SVG Version: 6.00 Build 0)  -->
<svg version="1.1" id="Layer_1" xmlns="http://www.w3.org/2000/svg" xmlns:xlink="http://www.w3.org/1999/xlink" x="0px" y="0px"
	 viewBox="0 0 48.2 48.2" style="enable-background:new 0 0 48.2 48.2;" xml:space="preserve">
<style type="text/css">
	.st0{fill:#333333;}
</style>
<g id="Element_79_">
	<polygon class="st0" points="9.9,46.6 16.2,46.6 19.8,39.4 16.4,39.4 	"/>
	<polygon class="st0" points="28.7,39.4 32.3,46.6 38.6,46.6 32,39.4 	"/>
	<path class="st0" d="M38.5,13.5c-0.4,0-0.7,0.1-1,0.2V9.3c0-0.8-0.7-1.5-1.5-1.5h-5.3l0.9-4.3h3.7V0.9H13.2v2.6h3.7l0.9,4.3h-5.3
		c-0.8,0-1.5,0.7-1.5,1.5v4.5c-0.3-0.1-0.7-0.2-1.1-0.2c-1.4,0-2.5,1.1-2.5,2.5v2.7c0,1.4,1.1,2.5,2.5,2.5c0.4,0,0.7-0.1,1.1-0.2
		v15.4c0,0.8,0.7,1.5,1.5,1.5H36c0.8,0,1.5-0.7,1.5-1.5V21.1c0.3,0.1,0.7,0.2,1,0.2c1.4,0,2.5-1.1,2.5-2.5V16
		C41.1,14.6,39.9,13.5,38.5,13.5z M19.5,3.5h9.4l-0.9,4.3h-7.7L19.5,3.5z M19.8,32.2c0,0.6-0.5,1.1-1.1,1.1h-4.4
		c-0.6,0-1.1-0.5-1.1-1.1v0c0-0.6,0.5-1.1,1.1-1.1h4.4C19.3,31.1,19.8,31.6,19.8,32.2L19.8,32.2z M35.3,32.2c0,0.6-0.5,1.1-1.1,1.1
		h-4.4c-0.6,0-1.1-0.5-1.1-1.1v0c0-0.6,0.5-1.1,1.1-1.1h4.4C34.8,31.1,35.3,31.6,35.3,32.2L35.3,32.2z M34.7,27.1
		c0,0.7-0.6,1.3-1.3,1.3H15.1c-0.7,0-1.3-0.6-1.3-1.3l-0.7-14.8c0-0.7,0.6-1.3,1.3-1.3h19.7c0.7,0,1.3,0.6,1.3,1.3L34.7,27.1z"/>
</g>
</svg>
