<svg height="512pt" viewBox="0 0 512 512" width="512pt" xmlns="http://www.w3.org/2000/svg"><path d="m477.410156 119.101562c11.503906-12.65625 18.523438-29.457031 18.523438-47.867187 0-39.28125-31.953125-71.234375-71.234375-71.234375-39.277344 0-71.230469 31.953125-71.230469 71.234375 0 30.855469 19.722656 57.179687 47.21875 67.054687-13.765625 13.789063-30.601562 30.617188-38.429688 38.445313h-41.992187c-25.988281 0-47.132813 21.136719-47.132813 47.148437 0 5.953126 1.109376 11.730469 3.203126 17.117188h-40.675782c2.097656-5.390625 3.207032-11.179688 3.207032-17.148438 0-25.980468-21.144532-47.117187-47.132813-47.117187h-41.992187c-7.824219-7.824219-24.644532-24.636719-38.429688-38.445313 27.5-9.875 47.222656-36.199218 47.222656-67.054687-.003906-39.28125-31.957031-71.234375-71.234375-71.234375-39.277343 0-71.234375 31.953125-71.234375 71.234375 0 18.410156 7.019532 35.210937 18.523438 47.867187-26.25 13.191407-34.589844 38.914063-34.589844 56.082032v145.082031c0 34.851563 28.351562 63.203125 63.199219 63.203125h65.332031v81.398438c0 25.988281 21.148438 47.132812 47.136719 47.132812h160.664062c25.988281 0 47.136719-21.144531 47.136719-47.132812v-81.398438h65.332031c34.847657 0 63.199219-28.355469 63.199219-63.203125v-145.082031c0-17.140625-8.359375-42.898438-34.589844-56.082032zm-93.941406-47.867187c0-22.738281 18.496094-41.234375 41.230469-41.234375 22.738281 0 41.234375 18.496094 41.234375 41.234375 0 22.734375-18.496094 41.230469-41.234375 41.230469-22.734375 0-41.230469-18.496094-41.230469-41.230469zm14.679688 198.679687c1.863281-.746093 3.578124-1.859374 5.023437-3.308593l14.5625-14.558594v37.152344h-19.304687c.71875-2.96875 1.101562-6.023438 1.101562-9.097657 0-3.449218-.480469-6.875-1.382812-10.1875zm-28.617188 10.1875c0 4.78125-3.863281 9.097657-9.097656 9.097657h-200.832032c-5.214843 0-9.101562-4.296875-9.101562-9.097657 0-4.785156 3.863281-9.101562 9.101562-9.101562h200.832032c5.210937 0 9.097656 4.296875 9.097656 9.101562zm-77.125 201.898438h-21.40625v-162.800781h27.652344c-5.984375 9.65625-9.453125 21.027343-9.453125 33.199219v112.46875c0 5.960937 1.109375 11.746093 3.207031 17.132812zm-79.058594-162.800781h27.652344v162.800781h-21.40625c2.097656-5.386719 3.207031-11.171875 3.207031-17.132812v-112.46875c0-12.171876-3.46875-23.542969-9.453125-33.199219zm-91.746094-30h-27.335937v-37.152344l14.5625 14.558594c2.8125 2.8125 6.628906 4.394531 10.605469 4.394531h2.167968c-.71875 2.972656-1.101562 6.027344-1.101562 9.101562 0 3.074219.382812 6.128907 1.101562 9.097657zm-34.300781-259.199219c22.734375 0 41.230469 18.496094 41.230469 41.234375 0 22.734375-18.496094 41.230469-41.230469 41.230469-22.738281 0-41.234375-18.496094-41.234375-41.230469 0-22.738281 18.496094-41.234375 41.234375-41.234375zm56.230469 323.46875h-80.332031c-18.304688 0-33.199219-14.894531-33.199219-33.203125v-145.082031c0-17.617188 14.203125-32.714844 32.71875-32.714844 6.644531 0 12.9375 2.605469 17.652344 7.289062 18.277344 18.332032 52.21875 52.246094 52.558594 52.585938 2.8125 2.8125 6.628906 4.390625 10.605468 4.390625h48.199219c9.445313 0 17.132813 7.675781 17.132813 17.148437 0 9.605469-7.789063 17.117188-17.132813 17.117188h-66.085937l-35.773438-35.773438c-4.292969-4.292968-10.742188-5.574218-16.347656-3.253906-5.605469 2.324219-9.261719 7.792969-9.261719 13.859375v88.367188c0 8.285156 6.71875 15 15 15h80.335937c18.304688 0 33.199219 14.894531 33.199219 33.199219v112.46875c0 9.585937-7.765625 17.132812-17.132812 17.132812-9.449219 0-17.136719-7.6875-17.136719-17.132812v-96.398438c0-8.285156-6.714844-15-15-15zm338.46875-33.203125c0 18.308594-14.894531 33.203125-33.199219 33.203125h-80.332031c-8.285156 0-15 6.714844-15 15v96.398438c0 9.445312-7.6875 17.132812-17.136719 17.132812-9.359375 0-17.132812-7.535156-17.132812-17.132812v-112.46875c0-18.304688 14.894531-33.199219 33.199219-33.199219h80.335937c8.28125 0 15-6.714844 15-15v-88.367188c0-6.066406-3.65625-11.535156-9.261719-13.855469-5.601562-2.320312-12.058594-1.039062-16.347656 3.25l-35.769531 35.773438h-66.089844c-9.351563 0-17.132813-7.511719-17.132813-17.148438 0-9.4375 7.6875-17.117187 17.132813-17.117187h48.203125c3.976562 0 7.789062-1.578125 10.601562-4.390625.339844-.339844 34.28125-34.253906 52.5-52.527344 4.773438-4.738281 11.066407-7.347656 17.710938-7.347656 18.472656 0 32.71875 15.054688 32.71875 32.71875zm0 0"/></svg>