<?xml version="1.0" encoding="utf-8"?>
<!-- Generator: Adobe Illustrator 21.0.2, SVG Export Plug-In . SVG Version: 6.00 Build 0)  -->
<svg version="1.1" id="Layer_1" xmlns="http://www.w3.org/2000/svg" xmlns:xlink="http://www.w3.org/1999/xlink" x="0px" y="0px"
	 viewBox="0 0 48.2 48.2" style="enable-background:new 0 0 48.2 48.2;" xml:space="preserve">
<style type="text/css">
	.st0{fill:#0D737F;}
</style>
<g>
	<g>
		<path class="st0" d="M46.1,18.3c0-2,0-5.1,0-6.1c0-1.5-1-2.4-1.6-1.6c-0.7,0.8-1.6,3.8-1.6,6.9c0,2.1,1.1,4.1,1.8,5.1
			c-0.4,5.8-0.6,14-0.6,14.7c0,1,0.7,1.9,1.5,1.9c0.8,0,1.5-0.8,1.5-1.9C47.1,36.5,46.7,22.8,46.1,18.3z"/>
		<path class="st0" d="M7.5,11.6v4.8c0,0.2-0.2,0.3-0.6,0.3c-0.3,0-0.6-0.2-0.6-0.3v-4.8l-0.5-1.1l-0.5,1.1v4.8
			c0,0.2-0.2,0.3-0.6,0.3c-0.3,0-0.6-0.2-0.6-0.3v-4.8l-0.5-1.1l-0.5,1.1v4.8c0,0.2-0.2,0.3-0.6,0.3c-0.3,0-0.6-0.2-0.6-0.3v-4.8
			l-0.6-1.1l-0.5,1.1v4.9c0,1.8,1.3,3.3,3,3.6c-0.5,5.6-0.8,16.5-0.8,17.2c0,1,0.7,1.9,1.5,1.9c0.8,0,1.5-0.8,1.5-1.9
			c0-0.7-0.3-11.6-0.8-17.2c1.7-0.3,3-1.8,3-3.6v-4.9L8,10.5L7.5,11.6z"/>
		<path class="st0" d="M24.5,9.6C16,9.6,9.2,16.5,9.2,24.9S16,40.3,24.5,40.3c8.5,0,15.4-6.9,15.4-15.4S33,9.6,24.5,9.6z M24.5,32.7
			c-4.3,0-7.7-3.5-7.7-7.7s3.5-7.7,7.7-7.7c4.3,0,7.7,3.5,7.7,7.7S28.8,32.7,24.5,32.7z"/>
	</g>
</g>
</svg>
