<?xml version="1.0" encoding="utf-8"?>
<!-- Generator: Adobe Illustrator 21.0.2, SVG Export Plug-In . SVG Version: 6.00 Build 0)  -->
<svg version="1.1" id="Layer_1" xmlns="http://www.w3.org/2000/svg" xmlns:xlink="http://www.w3.org/1999/xlink" x="0px" y="0px"
	 viewBox="0 0 265.3 296.2" style="enable-background:new 0 0 265.3 296.2;" xml:space="preserve">
<style type="text/css">
	.st0{fill:#494849;}
</style>
<g>
	<path class="st0" d="M237.5,30.9h-39V7.4c0-3.1-2.5-5.6-5.6-5.6c-3.1,0-5.6,2.5-5.6,5.6v23.5H77.9V7.4c0-3.1-2.5-5.6-5.6-5.6
		c-3.1,0-5.6,2.5-5.6,5.6v23.5h-39C12.5,30.9,0,43.4,0,58.7v209.7c0,15.3,12.5,27.8,27.8,27.8h209.7c15.3,0,27.8-12.5,27.8-27.8
		V58.7C265.3,43.4,252.8,30.9,237.5,30.9z M11.1,58.7c0-9.2,7.5-16.7,16.7-16.7h39v23.5c0,3.1,2.5,5.6,5.6,5.6
		c3.1,0,5.6-2.5,5.6-5.6V42h109.5v23.5c0,3.1,2.5,5.6,5.6,5.6c3.1,0,5.6-2.5,5.6-5.6V42h39c9.2,0,16.7,7.5,16.7,16.7v31H11.1V58.7z
		 M254.2,268.4c0,9.2-7.5,16.7-16.7,16.7H27.8c-9.2,0-16.7-7.5-16.7-16.7V100.8h243.1V268.4z"/>
	<path class="st0" d="M72.3,183.7c-14.7,0-26.6-12-26.6-26.6s12-26.6,26.6-26.6c14.7,0,26.6,12,26.6,26.6S87,183.7,72.3,183.7z
		 M72.3,141.5c-8.6,0-15.5,7-15.5,15.5c0,8.6,7,15.5,15.5,15.5c8.6,0,15.5-7,15.5-15.5C87.9,148.5,80.9,141.5,72.3,141.5z"/>
	<path class="st0" d="M132.6,183.7c-14.7,0-26.6-12-26.6-26.6s12-26.6,26.6-26.6s26.6,12,26.6,26.6S147.3,183.7,132.6,183.7z
		 M132.6,141.5c-8.6,0-15.5,7-15.5,15.5c0,8.6,7,15.5,15.5,15.5c8.6,0,15.5-7,15.5-15.5C148.2,148.5,141.2,141.5,132.6,141.5z"/>
	<path class="st0" d="M192.9,183.7c-14.7,0-26.6-12-26.6-26.6s12-26.6,26.6-26.6c14.7,0,26.6,12,26.6,26.6S207.6,183.7,192.9,183.7z
		 M192.9,141.5c-8.6,0-15.5,7-15.5,15.5c0,8.6,7,15.5,15.5,15.5c8.6,0,15.5-7,15.5-15.5C208.5,148.5,201.5,141.5,192.9,141.5z"/>
	<path class="st0" d="M72.3,247.4c-14.7,0-26.6-12-26.6-26.6c0-14.7,12-26.6,26.6-26.6c14.7,0,26.6,12,26.6,26.6
		C99,235.4,87,247.4,72.3,247.4z M72.3,205.2c-8.6,0-15.5,7-15.5,15.5c0,8.6,7,15.5,15.5,15.5c8.6,0,15.5-7,15.5-15.5
		C87.9,212.2,80.9,205.2,72.3,205.2z"/>
	<path class="st0" d="M132.6,247.4c-14.7,0-26.6-12-26.6-26.6c0-14.7,12-26.6,26.6-26.6s26.6,12,26.6,26.6
		C159.3,235.4,147.3,247.4,132.6,247.4z M132.6,205.2c-8.6,0-15.5,7-15.5,15.5c0,8.6,7,15.5,15.5,15.5c8.6,0,15.5-7,15.5-15.5
		C148.2,212.2,141.2,205.2,132.6,205.2z"/>
	<path class="st0" d="M192.9,247.4c-14.7,0-26.6-12-26.6-26.6c0-14.7,12-26.6,26.6-26.6c14.7,0,26.6,12,26.6,26.6
		C219.6,235.4,207.6,247.4,192.9,247.4z M192.9,205.2c-8.6,0-15.5,7-15.5,15.5c0,8.6,7,15.5,15.5,15.5c8.6,0,15.5-7,15.5-15.5
		C208.5,212.2,201.5,205.2,192.9,205.2z"/>
</g>
</svg>
