<?xml version="1.0" encoding="utf-8"?>
<!-- Generator: Adobe Illustrator 21.0.2, SVG Export Plug-In . SVG Version: 6.00 Build 0)  -->
<svg version="1.1" id="Layer_1" xmlns="http://www.w3.org/2000/svg" xmlns:xlink="http://www.w3.org/1999/xlink" x="0px" y="0px"
	 viewBox="0 0 48.2 48.2" style="enable-background:new 0 0 48.2 48.2;" xml:space="preserve">
<style type="text/css">
	.st0{fill:#0D737F;}
</style>
<path class="st0" d="M0.9,41.6c-0.1,0-0.1,0-0.2,0s-0.2-0.2-0.3-0.3s-0.1-0.3,0-0.4l8-20.4c0.1-0.2,0.3-0.3,0.5-0.3l0,0
	c0.2,0,0.4,0.1,0.5,0.3l7,16.9l8.1-30.7c0.1-0.2,0.3-0.4,0.5-0.4s0.5,0.2,0.5,0.4l8.6,30.7L41,19.3l-5.4-2c-0.2-0.1-0.3-0.3-0.3-0.5
	s0.1-0.4,0.3-0.5l8.3-4.4c0.1,0,0.2-0.1,0.3-0.1s0.1,0,0.2,0c0.1,0.1,0.3,0.2,0.3,0.3l3.5,8.8c0.1,0.2,0,0.4-0.1,0.6
	c-0.1,0.1-0.2,0.2-0.4,0.2c-0.1,0-0.1,0-0.2,0l-5.4-2l-7.4,19.6c-0.1,0.2-0.3,0.3-0.5,0.3c-0.3,0-0.5-0.2-0.5-0.4L25,8.9l-8,30.3
	c-0.1,0.2-0.3,0.4-0.5,0.4l0,0c-0.2,0-0.4-0.1-0.5-0.3L8.9,22.1L1.4,41.3C1.3,41.5,1.1,41.6,0.9,41.6z M46.6,20.3l-2.8-7.1L37,16.8
	L46.6,20.3z"/>
</svg>
