<?xml version="1.0" encoding="utf-8"?>
<!-- Generator: Adobe Illustrator 21.0.2, SVG Export Plug-In . SVG Version: 6.00 Build 0)  -->
<svg version="1.1" id="Icons" xmlns="http://www.w3.org/2000/svg" xmlns:xlink="http://www.w3.org/1999/xlink" x="0px" y="0px"
	 viewBox="0 0 32 32" style="enable-background:new 0 0 32 32;" xml:space="preserve">
<style type="text/css">
	.st0{fill:#FFFFFF;}
</style>
<g>
	<path class="st0" d="M69.1,22.5c-0.9-0.9-2.4-0.9-3.3,0l-2.4,2.4c-0.4,0.4-0.7,1-0.7,1.6c0,0.5,0.2,1,0.5,1.4L60.2,31
		c-0.9-0.9-2.1-1.8-3.6-2.2c-0.4-0.1-0.9-0.2-1.3-0.2c-1.5,0-3,0.7-3.9,1.8c-0.5,0.6-0.7,1.3-1,1.9c-0.2,0.5-0.4,0.9-0.6,1.3
		c-0.5,0.7-1.4,1.2-2.7,1.6c-0.3,0.1-0.7,0.2-1,0.3c-0.9,0.2-1.8,0.4-2.7,0.9c-2.5,1.2-4.3,4-4.5,6.9c-0.2,3.1,1.3,5.3,3.1,7.2l0,0
		l0.2,0.2l0,0c1.7,1.6,3.8,3.2,6.7,3.2c0.2,0,0.3,0,0.5,0c2.9-0.2,5.6-2,6.9-4.6c0.4-0.9,0.7-1.9,0.9-2.8c0.1-0.4,0.2-0.7,0.3-1
		c0.4-1.3,0.9-2.2,1.6-2.7c0.4-0.3,0.8-0.5,1.3-0.7c0.6-0.2,1.3-0.5,1.8-1c1.7-1.3,2-3.6,1.6-5.2c-0.4-1.4-1.2-2.5-2-3.5l3.1-3.1
		c0.4,0.3,0.9,0.5,1.4,0.5c0.6,0,1.2-0.2,1.6-0.7l2.4-2.4c0.4-0.4,0.7-1,0.7-1.6c0-0.6-0.3-1.2-0.7-1.6L69.1,22.5z M61.6,36.4
		c0.2,1,0.1,2.4-0.9,3.1c-0.4,0.3-0.9,0.5-1.4,0.7c-0.6,0.2-1.2,0.5-1.7,0.9c-1.1,0.8-1.8,2-2.3,3.8c-0.1,0.4-0.2,0.7-0.3,1.1
		c-0.2,0.8-0.4,1.6-0.7,2.4c-0.9,1.9-3,3.3-5.2,3.4c-2.4,0.1-4.2-1.2-5.7-2.7c-1.7-1.9-2.8-3.6-2.7-5.9c0.1-2.2,1.5-4.3,3.4-5.2
		c0.7-0.3,1.5-0.5,2.3-0.7c0.4-0.1,0.7-0.2,1.1-0.3c1.8-0.5,3-1.3,3.8-2.3c0.4-0.6,0.6-1.1,0.9-1.7c0.2-0.5,0.4-1,0.7-1.4
		c0.5-0.6,1.4-1,2.3-1c0.3,0,0.5,0,0.8,0.1c1,0.3,1.8,0.9,2.7,1.7l-2,2c-1.1-0.5-2.5-0.3-3.4,0.6c-0.6,0.6-0.9,1.3-0.9,2.1
		c0,0.5,0.1,0.9,0.3,1.3l-3.9,3.9c-0.2-0.4-0.4-0.8-0.5-1.3c-0.1-0.5-0.5-1-1.1-0.9c-0.5,0.1-0.9,0.6-0.9,1.1
		c0.3,2.5,2.4,4.6,4.9,4.9c0,0,0.1,0,0.1,0c0.5,0,0.9-0.4,1-0.9c0.1-0.5-0.3-1-0.9-1.1c-0.4-0.1-0.9-0.2-1.3-0.5l3.9-3.9
		c0.4,0.2,0.8,0.3,1.3,0.3c0.8,0,1.6-0.3,2.1-0.9c0.6-0.6,0.9-1.3,0.9-2.1c0-0.5-0.1-0.9-0.3-1.3l2-2C60.9,34.7,61.4,35.4,61.6,36.4
		z M54.8,37.8c-0.2-0.2-0.3-0.4-0.3-0.7c0-0.3,0.1-0.5,0.3-0.7s0.4-0.3,0.7-0.3c0.3,0,0.5,0.1,0.7,0.3c0.2,0.2,0.3,0.4,0.3,0.7
		c0,0.3-0.1,0.5-0.3,0.7C55.8,38.2,55.1,38.2,54.8,37.8z M68.7,25.3l-2.4,2.4c-0.1,0.1-0.3,0.2-0.4,0l-0.9-0.9
		c-0.1-0.1-0.1-0.2-0.1-0.2c0-0.1,0-0.1,0.1-0.2l2.4-2.4c0.1-0.1,0.1-0.1,0.2-0.1s0.2,0,0.2,0.1l0.9,0.9c0.1,0.1,0.1,0.2,0.1,0.2
		C68.7,25.2,68.7,25.3,68.7,25.3z"/>
</g>
<path class="st0" d="M16,27.1c-0.2,0-0.5-0.2-0.5-0.4l-1.8-4.9c-0.2-0.6-0.7-1.1-1.2-1.3c-3.6-1.5-5.9-5.2-5.7-9.1
	c0.2-4.8,4.1-8.6,8.9-8.9c5.4-0.2,9.8,4,9.8,9.3c0,3.8-2.2,7.1-5.7,8.6c-0.6,0.2-1,0.7-1.3,1.4l-1.8,4.8C16.5,27,16.2,27.1,16,27.1z
	 M16,3.7c-0.1,0-0.3,0-0.4,0C11.4,3.9,8,7.3,7.8,11.5c-0.2,3.4,1.8,6.6,5,8c0.8,0.4,1.5,1.1,1.9,2l1.3,3.4l1.3-3.4
	c0.3-0.9,1-1.7,1.9-2c3-1.3,5-4.2,5-7.5C24.2,7.4,20.5,3.7,16,3.7z"/>
<path class="st0" d="M16,16.6c-2.6,0-4.7-2.1-4.7-4.7s2.1-4.7,4.7-4.7c2.6,0,4.7,2.1,4.7,4.7S18.6,16.6,16,16.6z M16,8.4
	c-1.9,0-3.5,1.6-3.5,3.5s1.6,3.5,3.5,3.5c1.9,0,3.5-1.6,3.5-3.5S17.9,8.4,16,8.4z"/>
<path class="st0" d="M16,29.4c-4.1,0-11.1-0.6-11.1-2.9c0-1.8,4.4-2.5,7-2.8c0.3,0,0.6,0.2,0.6,0.5c0,0.3-0.2,0.6-0.5,0.6
	c-4.3,0.4-5.8,1.3-5.9,1.6c0.2,0.6,3.7,1.7,9.9,1.7c6.2,0,9.8-1.1,9.9-1.8c-0.1-0.3-1.8-1.2-6.2-1.6c-0.3,0-0.6-0.3-0.5-0.6
	c0-0.3,0.3-0.6,0.6-0.5c2.7,0.2,7.3,0.9,7.3,2.8C27.1,28.8,20.1,29.4,16,29.4z"/>
</svg>
