<?xml version="1.0" encoding="utf-8"?>
<!-- Generator: Adobe Illustrator 21.0.2, SVG Export Plug-In . SVG Version: 6.00 Build 0)  -->
<svg version="1.1" id="Layer_1" xmlns="http://www.w3.org/2000/svg" xmlns:xlink="http://www.w3.org/1999/xlink" x="0px" y="0px"
	 viewBox="0 0 48.2 48.2" style="enable-background:new 0 0 48.2 48.2;" xml:space="preserve">
<style type="text/css">
	.st0{fill:#0D737F;}
</style>
<g>
	<g>
		<path class="st0" d="M46.2,19.4h-1.9c-0.6-4.6-2.9-8.8-6.5-11.9c-3.7-3.2-8.5-5-13.5-5s-9.9,1.8-13.6,5.1c-3.5,3-5.7,7.2-6.3,11.8
			H2.5c-1,0-1.9,0.8-1.9,1.9v10.1c0,1,0.8,1.9,1.9,1.9h5.1c0.9,0,1.7-0.7,1.8-1.5c0.9,3,2.5,6,4.7,8.6c3.2,3.9,7.1,6.3,10.2,6.3
			c1.5,0,3.3-0.6,5.1-1.7c0.7,0.5,1.6,0.8,2.6,0.8c2.3,0,4.3-1.7,4.7-4h3.9c2.2,0,4-1.7,4-4v-4.4h1.7c1,0,1.9-0.8,1.9-1.9V21.2
			C48.1,20.2,47.3,19.4,46.2,19.4z M7.9,31.4c0,0.1-0.1,0.2-0.2,0.2H2.5c-0.1,0-0.2-0.1-0.2-0.2V21.2c0-0.1,0.1-0.2,0.2-0.2h5.1
			c0.1,0,0.2,0.1,0.2,0.2v10.2H7.9z M9.5,20.9c-0.2-0.8-0.9-1.5-1.8-1.5H6.1c1.2-8.8,9-15.3,18.3-15.3s17.1,6.5,18.3,15.3h-1.6
			c-0.9,0-1.7,0.7-1.8,1.5c0-0.2-0.1-0.3-0.2-0.5c0-0.1,0-0.1-0.1-0.2c-0.1-0.2-0.1-0.4-0.2-0.6c0-0.1,0-0.1-0.1-0.2
			c-0.1-0.2-0.2-0.4-0.2-0.6c0-0.1-0.1-0.1-0.1-0.2c-0.1-0.2-0.2-0.4-0.3-0.5c0-0.1-0.1-0.1-0.1-0.2c-0.1-0.2-0.2-0.3-0.3-0.5
			c0-0.1-0.1-0.1-0.1-0.2c-0.1-0.2-0.2-0.3-0.3-0.5c0-0.1-0.1-0.1-0.1-0.2c-0.1-0.2-0.2-0.3-0.3-0.5c0-0.1-0.1-0.1-0.1-0.2
			c-0.1-0.1-0.2-0.3-0.3-0.4c-0.1-0.1-0.1-0.1-0.2-0.2c-0.1-0.1-0.2-0.3-0.3-0.4c-0.1-0.1-0.1-0.1-0.2-0.2c-0.1-0.1-0.2-0.2-0.3-0.3
			l0,0l0,0c-0.1-0.1-0.2-0.1-0.2-0.2c-0.1-0.1-0.2-0.2-0.3-0.2c-2.7-2.3-6.4-3.5-10.5-3.5l0,0l0,0c-4.4,0-8.3,1.4-11,4
			C11.5,16.3,10.3,18.4,9.5,20.9z M23.6,12.3L23.6,12.3c0.3,0,0.5,0,0.8,0s0.5,0,0.8,0c0.1,0,0.2,0,0.3,0c0.2,0,0.3,0,0.5,0
			c0.1,0,0.2,0,0.3,0c0.1,0,0.3,0,0.4,0s0.3,0,0.4,0.1c0.1,0,0.2,0,0.3,0c0.1,0,0.3,0.1,0.4,0.1s0.2,0,0.3,0.1
			c0.1,0,0.3,0.1,0.4,0.1s0.1,0,0.2,0.1c0.2,0,0.3,0.1,0.5,0.1c0.1,0,0.1,0,0.2,0.1c0.2,0.1,0.3,0.1,0.5,0.2H30
			c0.2,0.1,0.3,0.1,0.5,0.2h0.1c0.2,0.1,0.3,0.1,0.5,0.2c0,0,0,0,0.1,0c0.2,0.1,0.3,0.2,0.5,0.3l0,0c0.2,0.1,0.4,0.2,0.5,0.3l0,0
			c2.5,1.5,4.3,3.8,5.3,6.8c0,0,0,0,0,0.1c0.1,0.2,0.1,0.3,0.2,0.5v0.1c0,0.2,0.1,0.3,0.1,0.5c0,0.1,0,0.1,0,0.2
			c0,0.2,0.1,0.3,0.1,0.5c0,0.1,0,0.2,0,0.2c0,0.1,0.1,0.3,0.1,0.4s0,0.2,0,0.3c0,0.1,0,0.3,0.1,0.4c0,0.1,0,0.2,0,0.3
			c0,0.1,0,0.3,0,0.4s0,0.1,0,0.2c-2-0.4-3.6-1.4-4.8-2.8c-0.2-0.3-0.5-0.4-0.9-0.3c-0.3,0.1-0.6,0.3-0.6,0.7
			c-0.2,0.9-0.8,1.9-1.7,2.6c0-0.1-0.1-0.1-0.1-0.2c-0.5-1.3-1.1-2.6-2.3-2.6c-0.1,0-0.2,0-0.4,0c-1.9,0.5-3.9,1-5.8,1
			c-1.5,0-2.9-0.3-4.3-0.9c-0.2-0.1-0.5-0.1-0.7,0s-0.4,0.3-0.4,0.6c-0.5,2.7-3.7,3.1-5.6,3.1c-0.1,0-0.3,0-0.4,0
			C10.4,18.1,15.6,12.6,23.6,12.3z M32.1,44c-0.8,0-1.5-0.3-2-0.8C30,43.1,30,43.1,29.9,43l0,0c-0.1-0.1-0.1-0.1-0.2-0.2
			c0,0,0,0,0-0.1c-0.1-0.1-0.1-0.1-0.1-0.2c0,0,0,0,0-0.1s-0.1-0.2-0.1-0.2s0,0,0-0.1s-0.1-0.2-0.1-0.2s0,0,0-0.1s-0.1-0.2-0.1-0.3
			c0,0,0,0,0-0.1s0-0.2,0-0.3c0,0,0,0,0-0.1s0-0.2,0-0.3c0-1.7,1.4-3.1,3.1-3.1c0.1,0,0.2,0,0.3,0c0,0,0,0,0.1,0s0.2,0,0.3,0
			c0,0,0,0,0.1,0s0.2,0,0.2,0.1c0,0,0,0,0.1,0s0.2,0.1,0.2,0.1s0,0,0.1,0s0.1,0.1,0.2,0.1c0,0,0,0,0.1,0s0.1,0.1,0.2,0.1
			c0,0,0,0,0.1,0c0.1,0.1,0.1,0.1,0.2,0.2l0,0c0.1,0.1,0.1,0.1,0.2,0.2c0.3,0.3,0.5,0.7,0.6,1.1h-0.1c-0.5,0-0.8,0.4-0.8,0.8
			c0,0.5,0.4,0.8,0.8,0.8H35C34.7,43,33.5,44,32.1,44z M34.9,37.1c-0.1-0.1-0.2-0.1-0.3-0.2l0,0c-0.1-0.1-0.2-0.1-0.3-0.2l0,0
			c-0.2-0.1-0.4-0.2-0.7-0.3l0,0c-0.1,0-0.2-0.1-0.4-0.1l0,0c-0.1,0-0.2-0.1-0.4-0.1l0,0c-0.1,0-0.2,0-0.3,0c0,0,0,0-0.1,0
			s-0.2,0-0.3,0c-2.6,0-4.7,2.1-4.7,4.7c0,0.1,0,0.2,0,0.3c0,0,0,0,0,0.1c0,0.2,0.1,0.5,0.1,0.7l0,0c0.1,0.6,0.4,1.2,0.8,1.7l0,0
			c-1.4,0.8-2.8,1.3-3.9,1.3c-2.5,0-6-2.2-8.9-5.7c-2.8-3.4-4.6-7.4-5-11.2c0.1,0,0.2,0,0.4,0c3.6,0,6-1.2,6.9-3.5
			c1.3,0.5,2.6,0.7,4.1,0.7c2.1,0,4.2-0.5,6.1-1c0.2,0.2,0.6,1,0.8,1.5c0.2,0.4,0.3,0.8,0.5,1.1c0.1,0.2,0.3,0.3,0.5,0.4
			s0.4,0.1,0.6,0c1.2-0.6,2.3-1.7,2.9-2.8c1.4,1.2,3.1,2,5.1,2.4C38.2,30.3,37,33.9,34.9,37.1z M42.9,37.7c0,1.3-1,2.3-2.3,2.3h-3.9
			c-0.1-0.6-0.3-1.2-0.7-1.6c1.5-2.1,2.5-4.4,3.2-6.7c0.1,0.9,0.9,1.6,1.9,1.6h1.8V37.7z M46.4,31.4c0,0.1-0.1,0.2-0.2,0.2h-5.1
			c-0.1,0-0.2-0.1-0.2-0.2V21.2c0-0.1,0.1-0.2,0.2-0.2h5.1c0.1,0,0.2,0.1,0.2,0.2V31.4z"/>
	</g>
</g>
</svg>
