<?xml version="1.0" encoding="utf-8"?>
<!-- Generator: Adobe Illustrator 21.0.2, SVG Export Plug-In . SVG Version: 6.00 Build 0)  -->
<svg version="1.1" id="Layer_1" xmlns="http://www.w3.org/2000/svg" xmlns:xlink="http://www.w3.org/1999/xlink" x="0px" y="0px"
	 viewBox="0 0 48.2 48.2" style="enable-background:new 0 0 48.2 48.2;" xml:space="preserve">
<style type="text/css">
	.st0{fill:#007480;}
</style>
<g>
	<path class="st0" d="M6.1,44.2c0,1.2,1,2.2,2.2,2.2h31.6c1.2,0,2.2-1,2.2-2.2V13.8h-36V44.2z M24.1,18.6c5.2,0,9.7,3.6,10.9,8.4
		h-3.8c-1.1-2.8-3.9-4.8-7.1-4.8c-4.2,0-7.7,3.4-7.7,7.7c0,4.2,3.4,7.7,7.7,7.7c3.2,0,6-2,7.1-4.8H35c-1.3,4.8-5.7,8.4-10.9,8.4
		c-6.2,0-11.3-5.1-11.3-11.3S17.9,18.6,24.1,18.6z"/>
	<path class="st0" d="M39.9,1.3H8.3c-1.2,0-2.2,1-2.2,2.2v7.7h36V3.5C42.1,2.3,41.1,1.3,39.9,1.3z M19.6,7.7h-9.3V4.3h9.3V7.7z"/>
</g>
</svg>
