<?xml version="1.0" encoding="utf-8"?>
<!-- Generator: Adobe Illustrator 21.0.2, SVG Export Plug-In . SVG Version: 6.00 Build 0)  -->
<svg version="1.1" id="Layer_1" xmlns="http://www.w3.org/2000/svg" xmlns:xlink="http://www.w3.org/1999/xlink" x="0px" y="0px"
	 viewBox="0 0 48.2 48.2" style="enable-background:new 0 0 48.2 48.2;" xml:space="preserve">
<style type="text/css">
	.st0{fill:#000000;}
</style>
<path class="st0" d="M23.7,0.9C10.9,0.9,0.4,11.4,0.4,24.2c0,12.9,10.5,23.3,23.3,23.3C36.6,47.5,47,37,47,24.2
	C47.1,11.4,36.6,0.9,23.7,0.9z M24.6,16.6c3.1-0.1,6-0.6,8.7-1.4c0.6,2.5,0.9,5.3,1,8.3h-9.7C24.6,23.5,24.6,16.6,24.6,16.6z
	 M24.6,15V2.6c3.5,0.6,6.6,4.9,8.3,11.1C30.3,14.4,27.5,14.9,24.6,15z M22.9,2.6V15c-2.9-0.1-5.7-0.5-8.3-1.3
	C16.4,7.5,19.4,3.2,22.9,2.6z M22.9,16.6v6.9h-9.7c0.1-2.9,0.4-5.7,1-8.3C16.9,16,19.9,16.5,22.9,16.6z M11.7,23.4H2
	c0.2-4.6,1.8-8.8,4.4-12.3c1.8,1.4,3.9,2.6,6.3,3.5C12.1,17.3,11.7,20.3,11.7,23.4z M11.7,25.1c0.1,3.1,0.4,6.1,1,8.8
	c-2.4,0.9-4.5,2.1-6.3,3.5C3.8,33.9,2.2,29.6,2,25.1H11.7z M13.3,25.1H23V32c-3.1,0.1-6,0.6-8.7,1.4C13.7,30.8,13.3,28,13.3,25.1z
	 M22.9,33.5v12.4c-3.5-0.6-6.6-4.9-8.3-11.1C17.2,34.1,20,33.6,22.9,33.5z M24.6,45.9V33.5c2.9,0.1,5.7,0.5,8.3,1.3
	C31.1,41,28.1,45.3,24.6,45.9z M24.6,31.9V25h9.7c-0.1,2.9-0.4,5.7-1,8.3C30.6,32.5,27.6,32,24.6,31.9z M35.8,25.1h9.7
	c-0.2,4.6-1.8,8.8-4.4,12.3c-1.8-1.4-3.9-2.6-6.3-3.5C35.4,31.2,35.8,28.2,35.8,25.1z M35.8,23.4c-0.1-3.1-0.4-6.1-1-8.8
	c2.4-0.9,4.5-2.1,6.3-3.5c2.6,3.4,4.2,7.7,4.4,12.3H35.8z M41,11.1c-0.3-0.4-0.6-0.8-0.9-1.1C40.4,10.3,40.7,10.7,41,11.1z M40.1,10
	c-1.6,1.3-3.5,2.3-5.7,3.1c-1.2-4.3-3.1-7.8-5.4-9.9C33.4,4.2,37.2,6.7,40.1,10z M18.5,3.2c-2.3,2.1-4.2,5.6-5.4,9.9
	C10.9,12.3,9,11.2,7.4,10C10.3,6.7,14.1,4.2,18.5,3.2z M7.4,10c-0.3,0.4-0.6,0.7-0.9,1.1C6.8,10.7,7.1,10.3,7.4,10z M6.5,37.4
	c0.3,0.4,0.6,0.8,0.9,1.1C7.1,38.2,6.8,37.8,6.5,37.4z M7.4,38.5c1.6-1.3,3.5-2.3,5.7-3.1c1.2,4.3,3.1,7.8,5.4,9.9
	C14.1,44.2,10.3,41.8,7.4,38.5z M29,45.3c2.3-2.1,4.2-5.6,5.4-9.9c2.2,0.8,4.1,1.9,5.7,3.1C37.2,41.8,33.4,44.2,29,45.3z M40.1,38.5
	c0.3-0.4,0.6-0.7,0.9-1.1C40.7,37.8,40.4,38.2,40.1,38.5z"/>
</svg>
