<?xml version="1.0" encoding="utf-8"?>
<!-- Generator: Adobe Illustrator 21.0.2, SVG Export Plug-In . SVG Version: 6.00 Build 0)  -->
<svg version="1.1" id="Layer_1" xmlns="http://www.w3.org/2000/svg" xmlns:xlink="http://www.w3.org/1999/xlink" x="0px" y="0px"
	 viewBox="0 0 48.2 48.2" style="enable-background:new 0 0 48.2 48.2;" xml:space="preserve">
<style type="text/css">
	.st0{fill:none;stroke:#333;stroke-width:2;stroke-miterlimit:10;}
</style>
<g>
	<path class="st0" d="M15,29.5c-6.7,0-10.9,4.3-10.9,7.4c0,4.8,9.9,8.6,22,8.6c7.1,0,13.4-1.3,17.5-3.4c0.9-0.4,0.7-1.7-0.3-1.9
		c-2-0.3-4.1-0.8-6-1.4c-1.6-0.5-3.4-1.2-4.6-2.6c-0.3-0.3-0.5-0.8-0.6-1.2c-0.2-0.9,0.4-1.9,1.1-2.5c0.7-0.6,1.6-1,2.4-1.4
		c0.3-0.1,0.5-0.3,0.7-0.5c0.3-0.5,0.2-1.2-0.3-1.5c-0.3-0.2-0.7-0.2-1-0.2c-2.3-0.1-11.5,0-13.8,0c-1.3,0-2.5,0-3.8,0"/>
	<line class="st0" x1="17.3" y1="36.9" x2="17.3" y2="2.6"/>
	<rect x="17.3" y="2.6" class="st0" width="20.1" height="13.2"/>
	<line class="st0" x1="17.3" y1="9.3" x2="37.4" y2="9.3"/>
</g>
</svg>
