<?xml version="1.0" encoding="utf-8"?>
<!-- Generator: Adobe Illustrator 21.0.2, SVG Export Plug-In . SVG Version: 6.00 Build 0)  -->
<svg version="1.1" id="Icons" xmlns="http://www.w3.org/2000/svg" xmlns:xlink="http://www.w3.org/1999/xlink" x="0px" y="0px"
	 viewBox="0 0 32 32" style="enable-background:new 0 0 32 32;" xml:space="preserve">
<style type="text/css">
	.st0{fill:#FFFFFF;}
</style>
<g>
	<path class="st0" d="M69.1,22.5c-0.9-0.9-2.4-0.9-3.3,0l-2.4,2.4c-0.4,0.4-0.7,1-0.7,1.6c0,0.5,0.2,1,0.5,1.4L60.2,31
		c-0.9-0.9-2.1-1.8-3.6-2.2c-0.4-0.1-0.9-0.2-1.3-0.2c-1.5,0-3,0.7-3.9,1.8c-0.5,0.6-0.7,1.3-1,1.9c-0.2,0.5-0.4,0.9-0.6,1.3
		c-0.5,0.7-1.4,1.2-2.7,1.6c-0.3,0.1-0.7,0.2-1,0.3c-0.9,0.2-1.8,0.4-2.7,0.9c-2.5,1.2-4.3,4-4.5,6.9c-0.2,3.1,1.3,5.3,3.1,7.2l0,0
		l0.2,0.2l0,0c1.7,1.6,3.8,3.2,6.7,3.2c0.2,0,0.3,0,0.5,0c2.9-0.2,5.6-2,6.9-4.6c0.4-0.9,0.7-1.9,0.9-2.8c0.1-0.4,0.2-0.7,0.3-1
		c0.4-1.3,0.9-2.2,1.6-2.7c0.4-0.3,0.8-0.5,1.3-0.7c0.6-0.2,1.3-0.5,1.8-1c1.7-1.3,2-3.6,1.6-5.2c-0.4-1.4-1.2-2.5-2-3.5l3.1-3.1
		c0.4,0.3,0.9,0.5,1.4,0.5c0.6,0,1.2-0.2,1.6-0.7l2.4-2.4c0.4-0.4,0.7-1,0.7-1.6c0-0.6-0.3-1.2-0.7-1.6L69.1,22.5z M61.6,36.4
		c0.2,1,0.1,2.4-0.9,3.1c-0.4,0.3-0.9,0.5-1.4,0.7c-0.6,0.2-1.2,0.5-1.7,0.9c-1.1,0.8-1.8,2-2.3,3.8c-0.1,0.4-0.2,0.7-0.3,1.1
		c-0.2,0.8-0.4,1.6-0.7,2.4c-0.9,1.9-3,3.3-5.2,3.4c-2.4,0.1-4.2-1.2-5.7-2.7c-1.7-1.9-2.8-3.6-2.7-5.9c0.1-2.2,1.5-4.3,3.4-5.2
		c0.7-0.3,1.5-0.5,2.3-0.7c0.4-0.1,0.7-0.2,1.1-0.3c1.8-0.5,3-1.3,3.8-2.3c0.4-0.6,0.6-1.1,0.9-1.7c0.2-0.5,0.4-1,0.7-1.4
		c0.5-0.6,1.4-1,2.3-1c0.3,0,0.5,0,0.8,0.1c1,0.3,1.8,0.9,2.7,1.7l-2,2c-1.1-0.5-2.5-0.3-3.4,0.6c-0.6,0.6-0.9,1.3-0.9,2.1
		c0,0.5,0.1,0.9,0.3,1.3l-3.9,3.9c-0.2-0.4-0.4-0.8-0.5-1.3c-0.1-0.5-0.5-1-1.1-0.9c-0.5,0.1-0.9,0.6-0.9,1.1
		c0.3,2.5,2.4,4.6,4.9,4.9c0,0,0.1,0,0.1,0c0.5,0,0.9-0.4,1-0.9c0.1-0.5-0.3-1-0.9-1.1c-0.4-0.1-0.9-0.2-1.3-0.5l3.9-3.9
		c0.4,0.2,0.8,0.3,1.3,0.3c0.8,0,1.6-0.3,2.1-0.9c0.6-0.6,0.9-1.3,0.9-2.1c0-0.5-0.1-0.9-0.3-1.3l2-2C60.9,34.7,61.4,35.4,61.6,36.4
		z M54.8,37.8c-0.2-0.2-0.3-0.4-0.3-0.7c0-0.3,0.1-0.5,0.3-0.7s0.4-0.3,0.7-0.3c0.3,0,0.5,0.1,0.7,0.3c0.2,0.2,0.3,0.4,0.3,0.7
		c0,0.3-0.1,0.5-0.3,0.7C55.8,38.2,55.1,38.2,54.8,37.8z M68.7,25.3l-2.4,2.4c-0.1,0.1-0.3,0.2-0.4,0l-0.9-0.9
		c-0.1-0.1-0.1-0.2-0.1-0.2c0-0.1,0-0.1,0.1-0.2l2.4-2.4c0.1-0.1,0.1-0.1,0.2-0.1s0.2,0,0.2,0.1l0.9,0.9c0.1,0.1,0.1,0.2,0.1,0.2
		C68.7,25.2,68.7,25.3,68.7,25.3z"/>
</g>
<path class="st0" d="M9.5,30.2C9.5,30.2,9.5,30.2,9.5,30.2c-2.4,0-4.6-1.1-6.1-3c-2.2-2.8-2.2-6.8-0.1-9.6c1.1-1.4,2.5-2.3,4.1-2.8
	c1.5-0.4,2.9-1.3,4-2.6c0.1-0.1,0.3-0.3,0.4-0.4c1.1-1.1,2.6-1.7,4.1-1.7c1.8,0,3.5,0.8,4.6,2.2c1.6,2,1.7,5,0.1,7.1
	c-0.3,0.4-0.6,0.8-1,1.1c-1.3,1.1-2.2,2.4-2.6,3.9c-0.3,1.3-1.1,2.6-2,3.5C13.6,29.4,11.6,30.2,9.5,30.2z M16,11.4
	c-1.2,0-2.4,0.5-3.2,1.3c-0.1,0.1-0.2,0.2-0.3,0.3c-1.2,1.5-2.8,2.6-4.6,3.1c-1.4,0.4-2.6,1.2-3.5,2.3c-1.8,2.3-1.8,5.7,0.1,8
	c1.3,1.6,3.1,2.5,5.1,2.5c0,0,0,0,0,0c1.7,0,3.4-0.7,4.6-1.9c0.8-0.8,1.4-1.8,1.7-2.9c0.5-1.7,1.5-3.3,3-4.6
	c0.3-0.2,0.6-0.5,0.8-0.9c1.2-1.6,1.1-3.9-0.1-5.5C18.7,12,17.4,11.4,16,11.4z"/>
<path class="st0" d="M16,18.5c-0.7,0-1.4-0.3-1.8-0.8c-1-1-1-2.7,0-3.7c1-1,2.7-1,3.7,0c0.5,0.5,0.8,1.1,0.8,1.8
	c0,0.7-0.3,1.4-0.8,1.8C17.3,18.3,16.7,18.5,16,18.5z M16,14.6c-0.3,0-0.7,0.1-0.9,0.4c-0.5,0.5-0.5,1.3,0,1.8
	c0.5,0.5,1.4,0.5,1.8,0c0.2-0.2,0.4-0.6,0.4-0.9c0-0.3-0.1-0.7-0.4-0.9C16.7,14.8,16.3,14.6,16,14.6z"/>
<path class="st0" d="M20.6,13.8c-0.2,0-0.3-0.1-0.5-0.2c-0.3-0.3-0.3-0.7,0-0.9L28,4.9c0.3-0.3,0.3-0.7,0-0.9
	c-0.3-0.3-0.7-0.3-0.9,0l-7.8,7.8c-0.3,0.3-0.7,0.3-0.9,0c-0.3-0.3-0.3-0.7,0-0.9L26.1,3c0.8-0.8,2-0.8,2.8,0c0.8,0.8,0.8,2,0,2.8
	l-7.8,7.8C20.9,13.8,20.8,13.8,20.6,13.8z"/>
<path class="st0" d="M22,7.8c-0.2,0-0.3-0.1-0.5-0.2l-0.9-0.9c-0.3-0.3-0.3-0.7,0-0.9c0.3-0.3,0.7-0.3,0.9,0l0.9,0.9
	c0.3,0.3,0.3,0.7,0,0.9C22.3,7.8,22.1,7.8,22,7.8z"/>
<path class="st0" d="M23.8,6c-0.2,0-0.3-0.1-0.5-0.2l-0.9-0.9c-0.3-0.3-0.3-0.7,0-0.9c0.3-0.3,0.7-0.3,0.9,0l0.9,0.9
	c0.3,0.3,0.3,0.7,0,0.9C24.1,5.9,24,6,23.8,6z"/>
<path class="st0" d="M25.7,4.1c-0.2,0-0.3-0.1-0.5-0.2L24.3,3c-0.3-0.3-0.3-0.7,0-0.9c0.3-0.3,0.7-0.3,0.9,0L26.1,3
	c0.3,0.3,0.3,0.7,0,0.9C26,4.1,25.8,4.1,25.7,4.1z"/>
<path class="st0" d="M25.7,11.5c-0.2,0-0.3-0.1-0.5-0.2l-0.9-0.9c-0.3-0.3-0.3-0.7,0-0.9c0.3-0.3,0.7-0.3,0.9,0l0.9,0.9
	c0.3,0.3,0.3,0.7,0,0.9C26,11.5,25.8,11.5,25.7,11.5z"/>
<path class="st0" d="M27.5,9.7c-0.2,0-0.3-0.1-0.5-0.2l-0.9-0.9c-0.3-0.3-0.3-0.7,0-0.9c0.3-0.3,0.7-0.3,0.9,0L28,8.6
	c0.3,0.3,0.3,0.7,0,0.9C27.8,9.6,27.7,9.7,27.5,9.7z"/>
<path class="st0" d="M29.3,7.8c-0.2,0-0.3-0.1-0.5-0.2L28,6.7c-0.3-0.3-0.3-0.7,0-0.9c0.3-0.3,0.7-0.3,0.9,0l0.9,0.9
	c0.3,0.3,0.3,0.7,0,0.9C29.7,7.8,29.5,7.8,29.3,7.8z"/>
<path class="st0" d="M10.4,26.7c-0.2,0-0.3-0.1-0.5-0.2l-4.6-4.6c-0.3-0.3-0.3-0.7,0-0.9l1.8-1.8c0.3-0.3,0.7-0.3,0.9,0l4.6,4.6
	c0.3,0.3,0.3,0.7,0,0.9l-1.8,1.8C10.8,26.7,10.6,26.7,10.4,26.7z M6.8,21.5l3.7,3.7l0.9-0.9l-3.7-3.7L6.8,21.5z"/>
</svg>
