<?xml version="1.0" encoding="utf-8"?>
<!-- Generator: Adobe Illustrator 21.0.2, SVG Export Plug-In . SVG Version: 6.00 Build 0)  -->
<svg version="1.1" id="Layer_1" xmlns="http://www.w3.org/2000/svg" xmlns:xlink="http://www.w3.org/1999/xlink" x="0px" y="0px"
	 viewBox="0 0 48.2 48.2" style="enable-background:new 0 0 48.2 48.2;" xml:space="preserve">
<style type="text/css">
	.st0{fill:#333333;}
</style>
<g>
	<g>
		<path class="st0" d="M1.6,29.1c0,0.6,0.5,1,1,1h3.1c0.2,0,0.4-0.1,0.5-0.2v4.2c0,0.6,0.5,1,1,1h3.1c0.6,0,1-0.5,1-1v-8.3h24.8v8.3
			c0,0.6,0.5,1,1,1h3.1c0.6,0,1-0.5,1-1v-4.2c0.2,0.1,0.3,0.2,0.5,0.2h3.1c0.6,0,1-0.5,1-1v-3.3h1.1v-3.2H46v-3.3c0-0.6-0.5-1-1-1
			h-3.1c-0.2,0-0.4,0.1-0.5,0.2v-4.2c0-0.6-0.5-1-1-1h-3.1c-0.6,0-1,0.5-1,1v8.3H11.3v-8.3c0-0.6-0.5-1-1-1H7.2c-0.6,0-1,0.5-1,1
			v4.2c-0.2-0.1-0.3-0.2-0.5-0.2H2.6c-0.6,0-1,0.5-1,1v3.3H0.5v3.2h1.1V29.1z"/>
	</g>
</g>
</svg>
