<?xml version="1.0" encoding="utf-8"?>
<!-- Generator: Adobe Illustrator 21.0.2, SVG Export Plug-In . SVG Version: 6.00 Build 0)  -->
<svg version="1.1" id="Layer_1" xmlns="http://www.w3.org/2000/svg" xmlns:xlink="http://www.w3.org/1999/xlink" x="0px" y="0px"
	 viewBox="0 0 48.2 48.2" style="enable-background:new 0 0 48.2 48.2;" xml:space="preserve">
<style type="text/css">
	.st0{fill:#333333;}
</style>
<path class="st0" d="M15.9,20.3c-5.6,1.7-9.7,6.8-9.7,13c0,7.5,6.1,13.5,13.5,13.5c7.5,0,13.5-6.1,13.5-13.5c0-0.1,0-0.1,0-0.2
	l2.8,7.6c0.5,1.3,1.7,2.1,3,2.1c0.4,0,0.7-0.1,1.1-0.2c1.7-0.6,2.5-2.5,1.9-4.1l-3.8-10.2c-0.5-1.3-1.7-2.1-3-2.1h-4.1
	c-1.9-3.1-5.1-5.4-8.9-6.2v-0.6h5.9c1.8,0,3.2-1.4,3.2-3.2c0-1.8-1.4-3.2-3.2-3.2h-5.9v0c0-0.4-0.1-0.7-0.2-1c1.6-1,2.6-2.7,2.6-4.7
	c0-3.1-2.5-5.6-5.6-5.6c-3.1,0-5.6,2.5-5.6,5.6c0,1.9,1,3.7,2.5,4.7c-0.1,0.3-0.2,0.7-0.2,1.1V20.3z M19.7,42
	c-4.8,0-8.7-3.9-8.7-8.7c0-3.4,2-6.4,4.9-7.8v3.9c0,1.8,1.4,3.2,3.2,3.2h9.3c0,0.2,0,0.4,0,0.7C28.4,38.1,24.5,42,19.7,42z
	 M24.7,26.2h-2.4V25C23.2,25.3,24,25.7,24.7,26.2z"/>
</svg>
