<?xml version="1.0" encoding="utf-8"?>
<!-- Generator: Adobe Illustrator 21.0.2, SVG Export Plug-In . SVG Version: 6.00 Build 0)  -->
<svg version="1.1" id="Layer_1" xmlns="http://www.w3.org/2000/svg" xmlns:xlink="http://www.w3.org/1999/xlink" x="0px" y="0px"
	 viewBox="0 0 48.2 48.2" style="enable-background:new 0 0 48.2 48.2;" xml:space="preserve">
<style type="text/css">
	.st0{fill:none;stroke:#000000;stroke-width:2;stroke-linecap:round;stroke-linejoin:round;stroke-miterlimit:22.9256;}
</style>
<path class="st0" d="M9.9,23.2c2.3-0.5,4.5,0.9,5,3c0.5,2.2-0.9,4.3-3.2,4.8c-2.3,0.5-4.5-0.9-5-3C6.2,25.8,7.6,23.7,9.9,23.2
	L9.9,23.2z M19.2,30.1c-1.4-0.8-3.2-0.5-4.1,0.9c-0.9,1.3-0.5,3.1,0.9,3.9l7.1,4.3h0c0.8,0.5,1.8,0.6,2.6,0.4l7.7-4.2l6.9,5
	c3.8,0.9,4.7-3.3,1.5-5.5l-7.4-5.1c-0.6-0.2-1.2-0.2-1.8-0.1l0,0l-7.4,4L19.2,30.1L19.2,30.1z M45.5,45.5l-13.2-4.4
	c-0.3,0-0.6,0-0.9,0.1l-7.2,3.6L4.8,33 M8.2,36.5l-5.4,9"/>
<line class="st0" x1="24.1" y1="12.6" x2="26.2" y2="29.8"/>
<path class="st0" d="M2.7,14.5C6.2,8.7,13.8,4.1,22.9,2.9c9.2-1.1,17.6,1.5,22.4,6.4"/>
<path class="st0" d="M11,13.5c1.9-5.7,6.3-9.9,11.9-10.6c5.6-0.7,10.9,2.4,14.1,7.4"/>
<path class="st0" d="M19.7,12.5c0.2-5.5,1.3-9.3,3.2-9.5c1.8-0.2,3.9,3.2,5.4,8.5"/>
<line class="st0" x1="2.8" y1="15.3" x2="45.5" y2="10"/>
</svg>
