<?xml version="1.0" encoding="utf-8"?>
<!-- Generator: Adobe Illustrator 21.0.2, SVG Export Plug-In . SVG Version: 6.00 Build 0)  -->
<svg version="1.1" xmlns="http://www.w3.org/2000/svg" xmlns:xlink="http://www.w3.org/1999/xlink" x="0px" y="0px"
	 viewBox="0 0 89 95" style="enable-background:new 0 0 89 95;" xml:space="preserve">
<style type="text/css">
	.st0{fill:#007AFF;}
	.st1{fill-rule:evenodd;clip-rule:evenodd;}
	.st2{fill:#263342;}
	.st3{fill:#484848;stroke:#484848;stroke-width:2;stroke-miterlimit:10;}
</style>
<g id="fahrenheit">
</g>
<g id="celsius">
</g>
<g id="snow">
	<g>
		<path class="st0" d="M1045-651c-0.3,0-0.6-0.1-0.8-0.4l-4.2-5.1l-4.2,5.1c-0.4,0.4-1,0.5-1.4,0.1c-0.4-0.4-0.5-1-0.1-1.4l5-6
			c0.4-0.5,1.2-0.5,1.5,0l5,6c0.4,0.4,0.3,1.1-0.1,1.4C1045.5-651.1,1045.2-651,1045-651z"/>
	</g>
</g>
<g id="umberla_1_">
</g>
<g id="umberla">
</g>
<g id="thunder-1">
</g>
<g id="mountain">
</g>
<g id="sun-nwave">
</g>
<g id="sun-wave">
</g>
<g id="direction">
</g>
<g id="direction-e">
</g>
<g id="direction-w">
</g>
<g id="direction-s">
</g>
<g id="dark-moon">
</g>
<g id="half-moon">
</g>
<g id="_x31__x2F_4-moon">
</g>
<g id="_x31__x2F_3moon">
</g>
<g id="thermometer_1_">
</g>
<g id="thermometer-3">
</g>
<g id="thermometer-2">
</g>
<g id="thermometer-1">
</g>
<g id="thermometer">
</g>
<g id="tail-star">
</g>
<g id="stars">
</g>
<g id="moon">
</g>
<g id="leef">
</g>
<g id="tree">
</g>
<g id="thunderstorms">
</g>
<g id="stoms">
</g>
<g id="wind">
</g>
<g id="drop_1_">
</g>
<g id="low-rain">
</g>
<g id="low-rain-2">
</g>
<g id="moon-slice">
</g>
<g id="moon-2">
</g>
<g id="shade">
</g>
<g id="half-light">
</g>
<g id="drop">
</g>
<g id="cloud-thunder">
</g>
<g id="night-thunder">
</g>
<g id="thunder-rain-n">
</g>
<g id="night_drizzle">
</g>
<g id="night-rain">
</g>
<g id="cloudy-night">
</g>
<g id="thunder">
</g>
<g id="drizzle">
</g>
<g id="showers">
</g>
<g id="thunder-rain">
</g>
<g id="rain_flame">
</g>
<g id="rain-2">
</g>
<g id="rain-1">
</g>
<g id="half_rain">
</g>
<g id="suny-cloudy">
</g>
<g id="sunset">
</g>
<g id="mostly_cloudy">
</g>
<g id="sunrise">
</g>
<g id="sun">
	<rect x="618" y="-162" style="fill:none;" width="162" height="60"/>
	<text transform="matrix(1 0 0 1 674.1445 -150.1279)" style="font-family:'Montserrat-Light'; font-size:16px;">Hotels</text>
	<rect x="951" y="-165" style="fill:none;" width="162" height="60"/>
	<text transform="matrix(1 0 0 1 1006.2085 -153.1279)" style="font-family:'Montserrat-Light'; font-size:16px;">Flights</text>
	<rect x="619" y="81" style="fill:none;" width="162" height="60"/>
	<text transform="matrix(1 0 0 1 675.1445 92.8721)" style="font-family:'Montserrat-Light'; font-size:16px;">Hotels</text>
	<rect x="952" y="78" style="fill:none;" width="162" height="60"/>
	<text transform="matrix(1 0 0 1 1007.2085 89.8721)" style="font-family:'Montserrat-Light'; font-size:16px;">Flights</text>
</g>
<g id="full-moon">
</g>
<g id="direction-n">
</g>
<g id="snow-doll">
</g>
<g id="Layer_1">
	<g>
	</g>
	<g>
	</g>
	<g>
	</g>
	<g>
	</g>
	<g>
	</g>
	<g>
	</g>
	<g>
	</g>
	<g>
	</g>
	<g>
	</g>
	<g>
	</g>
	<g>
	</g>
	<g>
	</g>
	<g>
	</g>
	<g>
	</g>
	<g>
	</g>
	<g>
	</g>
	<g>
	</g>
	<g>
	</g>
	<g>
	</g>
	<g>
	</g>
	<g>
	</g>
	<g>
	</g>
	<g>
	</g>
	<g>
	</g>
	<g>
	</g>
	<g>
	</g>
	<g>
	</g>
	<g>
	</g>
	<g>
	</g>
	<g>
	</g>
	<g>
	</g>
	<g>
	</g>
	<g>
	</g>
	<g>
	</g>
	<g>
	</g>
	<g>
	</g>
	<g>
	</g>
	<g>
	</g>
	<g>
	</g>
	<g>
	</g>
	<g>
	</g>
	<g>
	</g>
	<g>
	</g>
	<g>
	</g>
	<g>
	</g>
	<g>
	</g>
	<g>
	</g>
	<g>
	</g>
	<g>
	</g>
	<g>
	</g>
	<g>
	</g>
	<g>
	</g>
	<g>
	</g>
	<g>
	</g>
	<g>
	</g>
	<g>
	</g>
	<g>
	</g>
	<g>
	</g>
	<g>
	</g>
	<g>
	</g>
	<g>
	</g>
	<g>
	</g>
	<g>
	</g>
	<g>
	</g>
	<g>
	</g>
	<g>
	</g>
	<g>
	</g>
	<g>
	</g>
	<g>
	</g>
	<g>
	</g>
	<g>
	</g>
	<g>
	</g>
	<g>
	</g>
	<g>
	</g>
	<g>
	</g>
	<g>
	</g>
	<g>
	</g>
	<g>
	</g>
	<g>
	</g>
	<g>
	</g>
	<g>
	</g>
	<g>
	</g>
	<g>
	</g>
	<g>
	</g>
	<g>
	</g>
	<g>
	</g>
	<g>
	</g>
	<g>
	</g>
	<g>
	</g>
	<g>
	</g>
	<g>
	</g>
	<g>
	</g>
	<g>
	</g>
	<g>
	</g>
	<g>
	</g>
	<g>
	</g>
	<g>
	</g>
	<g>
	</g>
	<g>
	</g>
	<g>
	</g>
	<path class="st1" d="M1027.5-264.5l8.7-2.6l0.6-0.2l0.6,0.2l8.7,2.6l1.4,0.4v1.5v6.5v2.1l-2.1-0.1l-8.6-0.6l-8.6,0.6l-2.1,0.1v-2.1
		v-6.5v-1.5L1027.5-264.5L1027.5-264.5z M1020.6-243l-51.3-9.7l-0.7,3.9l23.6,4.4c-1.4,1.4-2.2,3.2-2.2,5.3c0,2.2,1,4.2,2.6,5.7
		c1.5,1.4,3.7,2.3,6,2.3s4.5-0.9,6-2.3c1.6-1.4,2.6-3.5,2.6-5.7c0-0.9-0.2-1.7-0.4-2.5l17.7,3.3c3.4,3.3,7.7,5.4,12.4,5.4
		s9-2.1,12.4-5.4l17.7-3.3c-0.3,0.8-0.4,1.6-0.4,2.5c0,2.2,1,4.2,2.6,5.7c1.5,1.4,3.7,2.3,6,2.3c2.3,0,4.5-0.9,6-2.3
		c1.6-1.4,2.6-3.5,2.6-5.7c0-2-0.8-3.9-2.2-5.3l23.6-4.4l-0.7-3.9l-51.3,9.7c2.5-4,3.9-8.7,3.9-13.4c0-1.5-0.1-2.9-0.4-4.2h18.1v-4
		h-19.4c-1-2.3-2.4-4.3-4.1-6c-3.2-3.2-7.5-5.2-12.4-5.7v-24.3h-4v24.3c-4.8,0.4-9.1,2.5-12.4,5.7c-1.7,1.7-3.1,3.7-4.1,6H999v4
		h18.1c-0.3,1.3-0.4,2.8-0.4,4.2C1016.7-251.8,1018.2-247,1020.6-243L1020.6-243z M1001.9-241.8c0.8,0.7,1.3,1.7,1.3,2.7
		c0,1.1-0.5,2-1.3,2.7c-0.8,0.8-2,1.2-3.4,1.2c-1.3,0-2.5-0.5-3.4-1.2c-0.8-0.7-1.3-1.7-1.3-2.7c0-1.1,0.5-2,1.3-2.7
		C997.1-243.5,1000.1-243.5,1001.9-241.8L1001.9-241.8z M1078.4-241.8c0.8,0.7,1.3,1.7,1.3,2.7c0,1.1-0.5,2-1.3,2.7
		c-0.8,0.8-2,1.2-3.4,1.2c-1.3,0-2.5-0.5-3.4-1.2c-0.8-0.7-1.3-1.7-1.3-2.7c0-1.1,0.5-2,1.3-2.7
		C1073.5-243.5,1076.5-243.5,1078.4-241.8L1078.4-241.8z M1048.3-267.9c-2.9-2.9-7-4.6-11.6-4.6c-4.5,0-8.6,1.7-11.6,4.6
		c-2.8,2.8-4.5,6.7-4.5,11.4c0,5,2,10.1,5.1,13.8c2.9,3.4,6.8,5.7,11,5.7c4.2,0,8.1-2.3,11-5.7c3.1-3.8,5.1-8.8,5.1-13.8
		C1052.9-261.1,1051.2-265.1,1048.3-267.9L1048.3-267.9z M1036.8-263.1l-6.8,2v2.9l6.8-0.4l6.8,0.4v-2.9L1036.8-263.1z"/>
	<path d="M751.2-247.8c0-3.7-2.3-6.9-5.6-8.2l-7.1-13.7V-295h-84v24.5l-7.1,14.5c-3.2,1.3-5.5,4.5-5.5,8.2v5.7h1.3v12.8
		c0,4.5,3.7,8.2,8.2,8.2s8.2-3.7,8.2-8.2v-1.4H734v1.4c0,4.5,3.7,8.2,8.2,8.2s8.2-3.7,8.2-8.2v-12.8h0.8V-247.8z M747-229.3
		c0,2.7-2.2,4.8-4.8,4.8s-4.8-2.2-4.8-4.8v-4.8h-81.1v4.8c0,2.7-2.2,4.8-4.8,4.8c-2.7,0-4.8-2.2-4.8-4.8v-12.8H747V-229.3z
		 M692-271.5h-28.6v-4.7c0-2.7,2.2-4.9,4.8-4.9h18.9c2.7,0,4.8,2.3,4.8,4.9V-271.5z M695.4-268.1h2.6h35.3h2.5l5.9,11.3h-90
		l5.5-11.3h2.9H695.4z M729.8-271.5h-28.6v-4.7c0-2.7,2.2-4.9,4.9-4.9H725c2.7,0,4.8,2.3,4.8,4.9V-271.5z M658-291.6h77.3v20.2h-2.1
		v-4.7c0-4.5-3.6-8.3-8.1-8.3h-18.9c-4.5,0-8.2,3.8-8.2,8.3v4.7h-2.5v-4.7c0-4.5-3.7-8.3-8.2-8.3h-18.9c-4.5,0-8.2,3.8-8.2,8.3v4.7
		H658V-291.6z M645.4-247.8c0-2.7,1.9-4.8,4.4-5.6h93.7c2.5,0.8,4.4,2.9,4.4,5.6v2.4H645.4V-247.8z"/>
	<g>
		<path d="M748.5-5.4l-4.1-17.8c0.7-0.6,1.1-1.5,1.1-2.4v-3c0-1.8-1.6-3.3-3.6-3.4v-11.4c0-2.8-1.2-5.5-3.4-7.5
			c-2.2-2-5.1-3.1-8.1-3.1H663c-3.1,0-5.9,1.1-8.1,3.1c-2.2,2-3.4,4.7-3.4,7.5V-32c-2,0-3.6,1.5-3.6,3.4v3c0,1,0.5,1.9,1.2,2.5
			L645-5.6c-1,1.4-1.6,3-1.6,4.7v20.7c0,1.5,1.3,2.8,3,2.8h2.3v4.6c0,0.8,0.7,1.5,1.7,1.5h12.4c0.9,0,1.7-0.7,1.7-1.5v-4.6H729v4.6
			c0,0.8,0.7,1.5,1.7,1.5h12.4c0.9,0,1.7-0.7,1.7-1.5v-4.6h2.3c1.7,0,3-1.2,3-2.8V-0.9C750-2.5,749.5-4.1,748.5-5.4z M663-52.1h67.4
			c5.2,0,9.4,3.9,9.4,8.7V-32h-4.7v-6.7c0-3.2-2.9-5.9-6.4-5.9h-24.2c-3.5,0-6.4,2.6-6.4,5.9v6.7h-3.1v-6.7c0-3.2-2.9-5.9-6.4-5.9
			h-24.2c-3.5,0-6.4,2.6-6.4,5.9v6.7h-4.7v-11.4C653.6-48.2,657.8-52.1,663-52.1z M733.1-32h-32.7v-6.7c0-2.2,1.9-3.9,4.3-3.9h24.2
			c2.4,0,4.3,1.8,4.3,3.9V-32z M693.1-32h-32.7v-6.7c0-2.2,1.9-3.9,4.3-3.9h24.2c2.4,0,4.3,1.8,4.3,3.9V-32z M650-28.6
			c0-0.8,0.7-1.4,1.6-1.4h90.3c0.9,0,1.6,0.6,1.6,1.4v3c0,0.8-0.7,1.4-1.6,1.4h-90.3c-0.9,0-1.6-0.6-1.6-1.4V-28.6z M651.6-22.3
			h90.3c0.2,0,0.4,0,0.6,0l3.4,14.5c-1.4-0.8-3-1.3-4.7-1.3h-88.8c-1.6,0-3.2,0.4-4.6,1.2l3.4-14.4
			C651.2-22.3,651.4-22.3,651.6-22.3z M662.4,26.8h-11.6v-4.2h11.6V26.8z M742.7,26.8h-11.6v-4.2h11.6V26.8z M747.9,19.8
			c0,0.5-0.4,0.8-0.9,0.8h-3.9h-12.4h-67.9h-12.4h-3.9c-0.5,0-0.9-0.4-0.9-0.8V-0.9c0-3.5,3-6.3,6.8-6.3h88.8c2.2,0,4.2,1,5.5,2.5
			l0,0.1l0.1,0c0.8,1,1.3,2.3,1.3,3.6V19.8z"/>
	</g>
	<path class="st2" d="M1070.5-54c-1.2,0-2.3,0.2-3.3,0.7l-1.6,0.7c-2.4,1.1-5.9,3.5-7.8,5.4l-13.6,13.7l-10.2-3.1l0.3-0.3
		c1.1-1.1,1.1-3,0-4.1l-3-3c-0.5-0.5-1.3-0.9-2-0.9c-0.8,0-1.5,0.3-2,0.9l-4.1,4.1l-28.6-8.6c-0.3-0.1-0.6,0-0.8,0.2l-5.5,5.6
		c-0.2,0.2-0.3,0.4-0.2,0.7c0,0.2,0.2,0.5,0.4,0.6l30.2,16.9l8.2,8.4c-1.7,1.9-3.8,4.3-5.1,6l-8.4,11l-16.6-4.3
		c-0.3-0.1-0.6,0-0.8,0.2l-3.3,3.4c-0.2,0.2-0.2,0.4-0.2,0.6c0,0.2,0.1,0.4,0.3,0.6l12.5,10.2l-1,1.3c-1.9,2.5-2.3,5.3-1,6.6
		c0.5,0.5,1.2,0.8,2.1,0.8c1.4,0,3.1-0.7,4.5-1.8l0.5-0.4l10.1,12.6c0.1,0.2,0.4,0.3,0.6,0.3c0,0,0,0,0,0c0.2,0,0.4-0.1,0.6-0.2
		l3.3-3.4c0.2-0.2,0.3-0.5,0.2-0.8l-4.3-16.7l11.8-9.1c1.7-1.3,4.1-3.4,6-5.2L1047,4l16.8,30.5c0.1,0.2,0.3,0.4,0.6,0.4
		c0,0,0.1,0,0.1,0c0.2,0,0.4-0.1,0.6-0.2l5.5-5.6c0.2-0.2,0.3-0.5,0.2-0.8l-8.6-28.8l4.1-4.1c1.1-1.1,1.1-3,0-4.1l-3-3
		c-0.5-0.5-1.3-0.9-2-0.9s-1.5,0.3-2,0.9l-0.3,0.3l-3.1-10.3l13.6-13.7c1.9-1.9,4.3-5.4,5.4-7.8l0.7-1.6c1.2-2.7,0.8-6-0.8-7.7
		C1073.8-53.4,1072.2-54,1070.5-54z M1028.4-42.9c0.2-0.2,0.6-0.4,0.9-0.4s0.7,0.1,0.9,0.4l3,3c0.5,0.5,0.5,1.3,0,1.8l-0.9,0.9
		l-7.4-2.2L1028.4-42.9z M1019.7-25.7c-0.1-0.1-0.1-0.1-0.2-0.1l-29.4-16.5l4.5-4.5l48.3,14.6l-14.9,15c0,0,0,0,0,0L1019.7-25.7z
		 M994.4,0.8l2.4-2.4l15.5,4l-6.1,8L994.4,0.8z M1023.5,26.6l-2.4,2.4l-9.5-11.8l7.9-6.1L1023.5,26.6z M1060.5-10.7
		c0.2-0.2,0.6-0.4,0.9-0.4s0.7,0.1,0.9,0.4l3,3c0.5,0.5,0.5,1.3,0,1.8l-3.5,3.5l-2.2-7.4L1060.5-10.7z M1069.2,28.2l-4.5,4.5
		l-16.4-29.6c0-0.1-0.1-0.1-0.1-0.2l-8.4-8.3c0,0,0,0,0,0l14.9-15L1069.2,28.2z M1074.1-45.5l-0.7,1.6c-1,2.3-3.2,5.6-5,7.4
		l-29.8,30c-1.8,1.8-5,4.6-7,6.2L1019.6,9c-0.1,0-0.2,0.1-0.2,0.2l-9.2,7.1c-0.1,0-0.2,0.1-0.3,0.1c-0.1,0.1-0.1,0.1-0.2,0.2
		l-0.9,0.7c-1.1,0.9-2.5,1.4-3.5,1.4c-0.4,0-0.8-0.1-1-0.3c-0.6-0.6-0.3-2.7,1.1-4.5l1.4-1.8c0,0,0.1-0.1,0.1-0.1
		c0-0.1,0.1-0.1,0.1-0.2l16-20.9c1.6-2.1,4.3-5.2,6.1-7l29.8-30c1.8-1.8,5.1-4.1,7.3-5.1l1.6-0.7c0.8-0.4,1.7-0.5,2.7-0.5
		c1.3,0,2.5,0.4,3.2,1C1074.8-50.2,1075-47.5,1074.1-45.5z"/>
	<g>
		<path class="st3" d="M85.8,53.2l-3.3-14c0.6-0.5,0.9-1.2,0.9-1.9V35c0-1.4-1.3-2.6-2.8-2.6v-9c0-2.2-0.9-4.3-2.7-5.9
			c-1.7-1.6-4-2.4-6.4-2.4H18.2c-2.4,0-4.7,0.9-6.4,2.4C10,19,9.1,21.1,9.1,23.3v9c-1.6,0-2.8,1.2-2.8,2.6v2.3c0,0.8,0.4,1.5,1,2
			L4,53.1c-0.8,1.1-1.3,2.3-1.3,3.7V73c0,1.2,1.1,2.2,2.4,2.2h1.8v3.6c0,0.7,0.6,1.2,1.3,1.2H18c0.7,0,1.3-0.5,1.3-1.2v-3.6h51.1
			v3.6c0,0.7,0.6,1.2,1.3,1.2h9.8c0.7,0,1.3-0.5,1.3-1.2v-3.6h1.8c1.3,0,2.4-1,2.4-2.2V56.7C87,55.5,86.6,54.2,85.8,53.2z
			 M18.2,16.5h53.3c4.1,0,7.4,3.1,7.4,6.8v9h-3.7v-5.2c0-2.5-2.3-4.6-5-4.6H51.1c-2.8,0-5,2.1-5,4.6v5.2h-2.4v-5.2
			c0-2.5-2.3-4.6-5-4.6H19.5c-2.8,0-5,2.1-5,4.6v5.2h-3.7v-9C10.7,19.6,14.1,16.5,18.2,16.5z M73.6,32.3H47.7v-5.2
			c0-1.7,1.5-3.1,3.4-3.1h19.1c1.9,0,3.4,1.4,3.4,3.1V32.3z M42,32.3H16.1v-5.2c0-1.7,1.5-3.1,3.4-3.1h19.1c1.9,0,3.4,1.4,3.4,3.1
			V32.3z M7.9,35c0-0.6,0.6-1.1,1.2-1.1h71.4c0.7,0,1.2,0.5,1.2,1.1v2.3c0,0.6-0.6,1.1-1.2,1.1H9.1c-0.7,0-1.2-0.5-1.2-1.1V35z
			 M9.1,39.9h71.4c0.2,0,0.3,0,0.5,0l2.7,11.4c-1.1-0.6-2.4-1-3.7-1H9.7c-1.3,0-2.6,0.3-3.6,0.9l2.7-11.3C8.9,39.9,9,39.9,9.1,39.9z
			 M17.7,78.5H8.5v-3.3h9.1V78.5z M81.2,78.5h-9.1v-3.3h9.1V78.5z M85.3,73c0,0.4-0.3,0.7-0.7,0.7h-3.1h-9.8H18H8.2H5.1
			c-0.4,0-0.7-0.3-0.7-0.7V56.7c0-2.7,2.4-4.9,5.4-4.9H80c1.8,0,3.3,0.8,4.3,2l0,0.1l0,0c0.6,0.8,1,1.8,1,2.8V73z"/>
	</g>
</g>
</svg>
