<?xml version="1.0" encoding="utf-8"?>
<!-- Generator: Adobe Illustrator 21.0.2, SVG Export Plug-In . SVG Version: 6.00 Build 0)  -->
<svg version="1.1" id="one_icon" xmlns="http://www.w3.org/2000/svg" xmlns:xlink="http://www.w3.org/1999/xlink" x="0px" y="0px"
	 viewBox="0 0 341 279" style="enable-background:new 0 0 341 279;" xml:space="preserve">
<style type="text/css">
	.st0{fill:#FFFFFF;}
</style>
<path class="st0" d="M15.4,74.8h278.7l-28.5,26c-4.9,4.9-4.9,13.7,0,18.5c2.4,2.4,5.6,4.1,8.8,4.1c3.2,0,6.4-1,8.8-3.4L331,72.4
	c4.9-4.9,4.9-12.7,0-17.6L283.3,7.1c-4.9-4.9-12.8-4.9-17.7,0c-4.9,4.9-4.9,11.6,0,16.5l28.5,27.3H15.4c-6.9,0-12.5,5.1-12.5,12
	S8.5,74.8,15.4,74.8z"/>
<path class="st0" d="M323.5,198.7H47.4l27.8-26.4c4.9-4.9,4.9-11.9,0-16.8c-4.9-4.9-12.8-4.4-17.7,0.4L9.8,203.9
	c-4.9,4.9-4.9,12.9,0,17.8l47.7,47.8c2.4,2.4,5.6,3.7,8.8,3.7c3.2,0,6.4-1.2,8.8-3.6c4.9-4.9,4.9-14,0-18.9l-27.8-25.9h276.1
	c6.9,0,12.5-6.1,12.5-13C336,204.8,330.4,198.7,323.5,198.7z"/>
</svg>
