<?xml version="1.0" encoding="utf-8"?>
<!-- Generator: Adobe Illustrator 21.0.2, SVG Export Plug-In . SVG Version: 6.00 Build 0)  -->
<svg version="1.1" id="Layer_1" xmlns="http://www.w3.org/2000/svg" xmlns:xlink="http://www.w3.org/1999/xlink" x="0px" y="0px"
	 viewBox="0 0 48.2 48.2" style="enable-background:new 0 0 48.2 48.2;" xml:space="preserve">
<style type="text/css">
	.st0{fill:#333;}
</style>
<g>
	<path class="st0" d="M24.3,31.7l-9.5,10.4c-0.3,0.4-0.8,0.6-1.3,0.6c-0.5,0-1-0.2-1.4-0.5c-0.4-0.4-0.6-0.9-0.5-1.4
		c0-0.5,0.2-1,0.6-1.3l10.5-9.6c0.2-0.2,0.2-0.4,0-0.6c-0.2-0.2-0.4-0.2-0.6,0l-10.5,9.6c-0.6,0.5-0.9,1.2-0.9,2
		c0,0.8,0.3,1.5,0.8,2c0.5,0.5,1.2,0.8,1.9,0.8c0,0,0.1,0,0.1,0c0.8,0,1.5-0.4,2-0.9l9.5-10.4c0.2-0.2,0.2-0.5,0-0.6
		C24.7,31.5,24.4,31.5,24.3,31.7z"/>
	<path class="st0" d="M46.2,8.2C45.1,7,43,6.9,40.3,7.9c-2.3,0.9-4.8,2.5-6.6,4.3c-2.9,2.9-3.8,6.2-2.5,8.7l-4.9,4.5
		c-0.2,0.2-0.2,0.4,0,0.6c0.2,0.2,0.4,0.2,0.6,0l5.1-4.8c0.2-0.1,0.2-0.4,0.1-0.5c-1.4-2.2-0.5-5.2,2.2-7.9c1.7-1.7,4.1-3.2,6.3-4.1
		c2.3-0.8,4.1-0.8,4.9,0c0.9,0.9,0.9,2.7,0,4.9c-0.8,2.2-2.3,4.6-4.1,6.3c-2.7,2.7-5.7,3.6-7.9,2.2c-0.2-0.1-0.4-0.1-0.5,0.1l-4.7,5
		c-0.2,0.2-0.2,0.5,0,0.6c0.1,0.1,0.2,0.1,0.3,0.1c0.1,0,0.2,0,0.3-0.1l4.4-4.8c1.2,0.6,2.5,0.7,3.9,0.4c1.6-0.4,3.3-1.4,4.8-2.9
		c1.8-1.8,3.4-4.3,4.3-6.6C47.4,11.4,47.3,9.3,46.2,8.2z"/>
	<path class="st0" d="M38.6,37.9L20.4,21.2c1.7-2.8,1.1-6.4-1.4-8.5L9,4.3C8.8,4.1,8.5,4.1,8.3,4.3C8.2,4.5,8.2,4.8,8.4,4.9l10,8.5
		c2.3,1.9,2.7,5.2,1,7.6c-0.1,0.2-0.1,0.4,0.1,0.6L38,38.5c0.4,0.3,0.6,0.8,0.6,1.3c0,0.5-0.2,1-0.5,1.4c-0.4,0.4-0.9,0.6-1.4,0.5
		c-0.5,0-1-0.2-1.3-0.6L18.5,22.7c-0.1-0.2-0.4-0.2-0.6-0.1c-2.4,1.7-5.7,1.2-7.6-1l-8.5-10c-0.2-0.2-0.4-0.2-0.6-0.1
		C1,11.6,1,11.9,1.1,12.1l8.5,10c2.1,2.5,5.7,3.1,8.5,1.4l16.6,18.2c0.5,0.6,1.2,0.9,2,0.9c0,0,0.1,0,0.1,0c0.7,0,1.4-0.3,1.9-0.8
		c0.5-0.5,0.8-1.3,0.8-2C39.5,39.1,39.2,38.4,38.6,37.9z"/>
	<path class="st0" d="M15.7,17.1c0.1,0.1,0.2,0.1,0.3,0.1c0.1,0,0.2,0,0.3-0.1c0.2-0.2,0.2-0.4,0-0.6L6.4,6.6C6.3,6.4,6,6.4,5.8,6.6
		C5.6,6.8,5.6,7,5.8,7.2L15.7,17.1z"/>
	<path class="st0" d="M13.3,19.4c0.1,0.1,0.2,0.1,0.3,0.1s0.2,0,0.3-0.1c0.2-0.2,0.2-0.4,0-0.6L4,9C3.9,8.8,3.6,8.8,3.4,9
		c-0.2,0.2-0.2,0.4,0,0.6L13.3,19.4z"/>
</g>
</svg>
