<?xml version="1.0" encoding="utf-8"?>
<!-- Generator: Adobe Illustrator 21.0.2, SVG Export Plug-In . SVG Version: 6.00 Build 0)  -->
<svg version="1.1" id="Layer_1" xmlns="http://www.w3.org/2000/svg" xmlns:xlink="http://www.w3.org/1999/xlink" x="0px" y="0px"
	 viewBox="0 0 48.2 48.2" style="enable-background:new 0 0 48.2 48.2;" xml:space="preserve">
<style type="text/css">
	.st0{fill:#007480;}
</style>
<path class="st0" d="M19.4,34.1c-4.6-0.3-8.6-1.6-11.8-3.7c-3.7-2.4-5.9-5.7-6.5-9.6c-0.5-3.2,0.6-6.6,2.9-9.3
	c3.8-4.4,10.4-7,17.7-7c0.7,0,1.5,0,2.2,0.1c4.4,0.3,8.6,1.3,12.3,3c3.5,1.6,6.3,3.7,8.2,6c1.9,2.4,2.7,4.9,2.3,7.2
	c-0.8,5.2-6.5,9.7-15.3,11.9L20.8,44.4L19.4,34.1z"/>
</svg>
