<?xml version="1.0" encoding="utf-8"?>
<!-- Generator: Adobe Illustrator 21.0.2, SVG Export Plug-In . SVG Version: 6.00 Build 0)  -->
<svg version="1.1" id="Layer_1" xmlns="http://www.w3.org/2000/svg" xmlns:xlink="http://www.w3.org/1999/xlink" x="0px" y="0px"
	 viewBox="0 0 48.2 48.2" style="enable-background:new 0 0 48.2 48.2;" xml:space="preserve">
<style type="text/css">
	.st0{fill:#FFFFFF;}
</style>
<g>
	<path class="st0" d="M24.2,31.6c-0.2,0-0.4-0.1-0.6-0.3L8.8,10c-0.1-0.2-0.2-0.5,0-0.7C8.9,9,9.2,8.9,9.4,8.9H39
		c0.3,0,0.5,0.1,0.6,0.4c0.1,0.2,0.1,0.5,0,0.7L24.8,31.3C24.7,31.5,24.5,31.6,24.2,31.6z M10.8,10.3l13.5,19.4l13.5-19.4H10.8z"/>
	<path class="st0" d="M9.4,16.6C6,16.6,3.1,13,3.1,8.8c0-4.2,2.8-7.7,6.3-7.7c2.6,0,4.8,2,5.6,5.3l-1.4,0.4C13,4.1,11.4,2.5,9.4,2.5
		c-2.7,0-4.9,2.9-4.9,6.3c0,3.4,2.3,6.4,4.9,6.4c0.2,0,0.4,0,0.5,0l0.2,1.4C9.9,16.6,9.7,16.6,9.4,16.6z"/>
	<rect x="23.5" y="30.9" class="st0" width="1.4" height="15.8"/>
	<rect x="20" y="45.5" class="st0" width="8.5" height="1.4"/>
	<rect x="12.2" y="13.1" class="st0" width="24" height="1.4"/>
	<path class="st0" d="M24.8,25.5l-1.2-0.8L39.2,2.1c0.2-0.3,0.6-0.4,0.9-0.2l7,3.5l-0.6,1.3L40,3.4L24.8,25.5z"/>
</g>
</svg>
