<?xml version="1.0" encoding="utf-8"?>
<!-- Generator: Adobe Illustrator 21.0.2, SVG Export Plug-In . SVG Version: 6.00 Build 0)  -->
<svg version="1.1" id="Layer_1" xmlns="http://www.w3.org/2000/svg" xmlns:xlink="http://www.w3.org/1999/xlink" x="0px" y="0px"
	 viewBox="0 0 48.2 48.2" style="enable-background:new 0 0 48.2 48.2;" xml:space="preserve">
<style type="text/css">
	.st0{fill:#333333;}
</style>
<g>
	<path class="st0" d="M30.5,12.8c-1.6-1.4-4.1-2.2-7.6-2.2c-2.8,0-5,0.2-6.7,0.5v26.6h3.5V26.9c0.8,0.2,1.8,0.2,2.8,0.2
		c3.4,0,6.4-1,8.2-3c1.4-1.4,2.1-3.3,2.1-5.8C32.9,16,32,14,30.5,12.8z M22.7,24.3c-1.2,0-2.1-0.1-2.9-0.3V13.6
		c0.6-0.2,1.8-0.3,3.3-0.3c3.8,0,6.4,1.7,6.4,5.3C29.4,22.3,26.9,24.3,22.7,24.3z"/>
	<path class="st0" d="M42.7,1.6H6.5c-2.4,0-4.4,2-4.4,4.4v36.2c0,2.4,2,4.4,4.4,4.4h36.2c2.4,0,4.4-2,4.4-4.4V6
		C47.1,3.6,45.1,1.6,42.7,1.6z M44.6,42.2c0,1.1-0.9,2-2,2H6.5c-1.1,0-2-0.9-2-2V6c0-1.1,0.9-2,2-2h36.2c1.1,0,2,0.9,2,2V42.2z"/>
</g>
</svg>
