<?xml version="1.0" encoding="utf-8"?>
<!-- Generator: Adobe Illustrator 21.0.2, SVG Export Plug-In . SVG Version: 6.00 Build 0)  -->
<svg version="1.1" id="Layer_1" xmlns="http://www.w3.org/2000/svg" xmlns:xlink="http://www.w3.org/1999/xlink" x="0px" y="0px"
	 viewBox="0 0 48.2 48.2" style="enable-background:new 0 0 48.2 48.2;" xml:space="preserve">
<style type="text/css">
	.st0{fill:#FFFFFF;}
</style>
<g>
	<path class="st0" d="M39.3,23.4c2.2,0,3.9-1.8,3.9-3.9s-1.8-3.9-3.9-3.9c-2.2,0-3.9,1.8-3.9,3.9S37.1,23.4,39.3,23.4z M39.3,16.3
		c1.7,0,3.2,1.4,3.2,3.2c0,1.7-1.4,3.2-3.2,3.2s-3.2-1.4-3.2-3.2C36.1,17.7,37.5,16.3,39.3,16.3z"/>
	<path class="st0" d="M8.9,23.4c2.2,0,3.9-1.8,3.9-3.9s-1.8-3.9-3.9-3.9c-2.2,0-3.9,1.8-3.9,3.9S6.8,23.4,8.9,23.4z M8.9,16.3
		c1.7,0,3.2,1.4,3.2,3.2c0,1.7-1.4,3.2-3.2,3.2c-1.7,0-3.2-1.4-3.2-3.2C5.8,17.7,7.2,16.3,8.9,16.3z"/>
	<path class="st0" d="M20.2,19.4c0,2.2,1.8,3.9,3.9,3.9c2.2,0,3.9-1.8,3.9-3.9s-1.8-3.9-3.9-3.9C21.9,15.5,20.2,17.3,20.2,19.4z
		 M27.3,19.4c0,1.7-1.4,3.2-3.2,3.2c-1.7,0-3.2-1.4-3.2-3.2c0-1.7,1.4-3.2,3.2-3.2C25.8,16.3,27.3,17.7,27.3,19.4z"/>
	<path class="st0" d="M45.9,24.9l-2.9-2c-0.1-0.1-0.2-0.1-0.3-0.1c-0.1,0-0.2,0.1-0.2,0.2l-2.6,5.1h-1.2L36,23
		c-0.1-0.1-0.1-0.2-0.2-0.2c-0.1,0-0.2,0-0.3,0.1l-2.9,2c-0.1,0.1-0.2,0.2-0.2,0.3l0.7,8.7c0,0.1,0.1,0.2,0.2,0.3l2.4,1.7l1,10.3
		c0,0.2,0.2,0.3,0.4,0.3c0,0,0,0,0,0c0.2,0,0.4-0.2,0.3-0.4l-1-10.4c0-0.1-0.1-0.2-0.2-0.3l-2.4-1.7l-0.7-8.3l2.4-1.6l2.5,4.9
		c0.1,0.1,0.2,0.2,0.3,0.2h1.7c0.1,0,0.3-0.1,0.3-0.2l2.5-4.9l2.4,1.6l-0.7,8.3l-2.4,1.7c-0.1,0.1-0.1,0.2-0.2,0.3l-1,10.4
		c0,0.2,0.1,0.4,0.3,0.4c0.2,0,0.4-0.1,0.4-0.3l1-10.3l2.4-1.7c0.1-0.1,0.1-0.2,0.2-0.3l0.7-8.7C46.1,25.1,46,24.9,45.9,24.9z"/>
	<path class="st0" d="M12.7,22.9c-0.1-0.1-0.2-0.1-0.3-0.1c-0.1,0-0.2,0.1-0.2,0.2l-2.6,5.1H8.3L5.7,23c-0.1-0.1-0.1-0.2-0.2-0.2
		c-0.1,0-0.2,0-0.3,0.1l-2.9,2c-0.1,0.1-0.2,0.2-0.2,0.3l0.7,8.7c0,0.1,0.1,0.2,0.2,0.3l2.4,1.7l1,10.3c0,0.2,0.2,0.3,0.4,0.3
		c0,0,0,0,0,0c0.2,0,0.4-0.2,0.3-0.4l-1-10.4c0-0.1-0.1-0.2-0.2-0.3l-2.4-1.7l-0.7-8.3l2.4-1.6l2.5,4.9c0.1,0.1,0.2,0.2,0.3,0.2h1.7
		c0.1,0,0.3-0.1,0.3-0.2l2.5-4.9l2.4,1.6l-0.7,8.3l-2.4,1.7c-0.1,0.1-0.1,0.2-0.2,0.3l-1,10.4c0,0.2,0.1,0.4,0.3,0.4
		c0.2,0,0.4-0.1,0.4-0.3l1-10.3l2.4-1.7c0.1-0.1,0.1-0.2,0.2-0.3l0.7-8.7c0-0.1-0.1-0.3-0.2-0.3L12.7,22.9z"/>
	<path class="st0" d="M27.9,22.9c-0.1-0.1-0.2-0.1-0.3-0.1c-0.1,0-0.2,0.1-0.2,0.2l-2.6,5.1h-1.2L20.9,23c0-0.1-0.1-0.2-0.2-0.2
		c-0.1,0-0.2,0-0.3,0.1l-2.9,2c-0.1,0.1-0.2,0.2-0.2,0.3l0.7,8.7c0,0.1,0.1,0.2,0.2,0.3l2.4,1.7l1,10.3c0,0.2,0.2,0.3,0.4,0.3
		c0,0,0,0,0,0c0.2,0,0.4-0.2,0.3-0.4l-1-10.4c0-0.1-0.1-0.2-0.2-0.3l-2.4-1.7L18,25.4l2.4-1.6l2.5,4.9c0.1,0.1,0.2,0.2,0.3,0.2h1.7
		c0.1,0,0.3-0.1,0.3-0.2l2.5-4.9l2.4,1.6l-0.7,8.3l-2.4,1.7c-0.1,0.1-0.1,0.2-0.2,0.3l-1,10.4c0,0.2,0.1,0.4,0.3,0.4
		c0.2,0,0.4-0.1,0.4-0.3l1-10.3l2.4-1.7c0.1-0.1,0.1-0.2,0.2-0.3l0.7-8.7c0-0.1-0.1-0.3-0.2-0.3L27.9,22.9z"/>
	<path class="st0" d="M20.4,12c0-2.1-1.7-3.9-3.9-3.9c-2.1,0-3.9,1.7-3.9,3.9c0,2.1,1.7,3.9,3.9,3.9C18.7,15.9,20.4,14.2,20.4,12z
		 M16.5,15.2c-1.7,0-3.1-1.4-3.1-3.1c0-1.7,1.4-3.1,3.1-3.1c1.7,0,3.1,1.4,3.1,3.1C19.7,13.8,18.2,15.2,16.5,15.2z"/>
	<path class="st0" d="M35.6,12c0-2.1-1.7-3.9-3.9-3.9c-2.1,0-3.9,1.7-3.9,3.9c0,2.1,1.7,3.9,3.9,3.9S35.6,14.2,35.6,12z M31.7,15.2
		c-1.7,0-3.1-1.4-3.1-3.1c0-1.7,1.4-3.1,3.1-3.1c1.7,0,3.1,1.4,3.1,3.1C34.8,13.8,33.4,15.2,31.7,15.2z"/>
	<path class="st0" d="M24.1,8.4c2.1,0,3.9-1.7,3.9-3.9c0-2.1-1.7-3.9-3.9-3.9s-3.9,1.7-3.9,3.9C20.2,6.7,21.9,8.4,24.1,8.4z
		 M24.1,1.4c1.7,0,3.1,1.4,3.1,3.1c0,1.7-1.4,3.1-3.1,3.1c-1.7,0-3.1-1.4-3.1-3.1S22.4,1.4,24.1,1.4z"/>
</g>
</svg>
