<?xml version="1.0" encoding="utf-8"?>
<!-- Generator: Adobe Illustrator 21.0.2, SVG Export Plug-In . SVG Version: 6.00 Build 0)  -->
<svg version="1.1" id="Icons" xmlns="http://www.w3.org/2000/svg" xmlns:xlink="http://www.w3.org/1999/xlink" x="0px" y="0px"
	 viewBox="0 0 32 32" style="enable-background:new 0 0 32 32;" xml:space="preserve">
<style type="text/css">
	.st0{fill:#FFFFFF;}
</style>
<path class="st0" d="M8.3,22.1c-3.3,0-6-2.7-6-6s2.7-6,6-6c3.3,0,6,2.7,6,6S11.6,22.1,8.3,22.1z M8.3,11.4c-2.6,0-4.7,2.1-4.7,4.7
	s2.1,4.7,4.7,4.7c2.6,0,4.7-2.1,4.7-4.7S10.9,11.4,8.3,11.4z"/>
<path class="st0" d="M23.7,22.1c-3.3,0-6-2.7-6-6s2.7-6,6-6c3.3,0,6,2.7,6,6S27,22.1,23.7,22.1z M23.7,11.4c-2.6,0-4.7,2.1-4.7,4.7
	s2.1,4.7,4.7,4.7c2.6,0,4.7-2.1,4.7-4.7S26.2,11.4,23.7,11.4z"/>
<path class="st0" d="M18.3,16.4c-0.4,0-0.7-0.3-0.7-0.7c0-0.9-0.7-1.7-1.7-1.7c-0.9,0-1.7,0.7-1.7,1.7c0,0.4-0.3,0.7-0.7,0.7
	c-0.4,0-0.7-0.3-0.7-0.7c0-1.7,1.3-3,3-3c1.7,0,3,1.3,3,3C19,16.1,18.7,16.4,18.3,16.4z"/>
<path class="st0" d="M2.7,16.4H1.3c-0.4,0-0.7-0.3-0.7-0.7c0-0.4,0.3-0.7,0.7-0.7h1.3c0.4,0,0.7,0.3,0.7,0.7
	C3.3,16.1,3,16.4,2.7,16.4z"/>
<path class="st0" d="M30.7,16.4h-1.3c-0.4,0-0.7-0.3-0.7-0.7c0-0.4,0.3-0.7,0.7-0.7h1.3c0.4,0,0.7,0.3,0.7,0.7
	C31.3,16.1,31,16.4,30.7,16.4z"/>
</svg>
