<svg height="24px" width="24px" version="1.1" id="Regular" xmlns="http://www.w3.org/2000/svg" xmlns:xlink="http://www.w3.org/1999/xlink" x="0px" y="0px"
    viewBox="0 0 24 24" style="enable-background:new 0 0 24 24;" xml:space="preserve">
<title>restaurant-dishes</title>
<g fill="#000000">
   <path d="M11.25,17.999c-0.203,0-0.4-0.084-0.541-0.23l-3.2-3.334c-0.795-0.799-0.99-2.022-0.479-3.039
      c0.449-0.899,1.356-1.458,2.365-1.458c0.411,0,0.807,0.093,1.176,0.278c0.251,0.126,0.48,0.29,0.68,0.488
      c0.497-0.493,1.156-0.765,1.858-0.766c0.706,0,1.369,0.274,1.867,0.772c0.201,0.2,0.368,0.432,0.496,0.688
      c0.509,1.018,0.31,2.244-0.495,3.049l-3.185,3.323C11.65,17.915,11.453,17.999,11.25,17.999z M9.393,11.437
      c-0.436,0-0.828,0.242-1.022,0.63c-0.221,0.441-0.136,0.97,0.211,1.319l2.668,2.78l2.655-2.77c0.356-0.357,0.445-0.888,0.225-1.329
      c-0.055-0.11-0.127-0.21-0.214-0.297c-0.216-0.215-0.502-0.334-0.806-0.334c-0.305,0-0.591,0.119-0.806,0.334l-0.522,0.522
      c-0.142,0.142-0.33,0.22-0.53,0.22s-0.389-0.078-0.53-0.22l-0.522-0.522c-0.088-0.087-0.188-0.16-0.298-0.215
      C9.741,11.477,9.57,11.437,9.393,11.437z"/>
   <path d="M20.248,23.249c-0.414,0-0.75-0.336-0.75-0.75v-7.461c-0.001-0.013-0.001-0.026-0.001-0.039s0-0.026,0.001-0.039V2.249
      c-0.001-0.609,0.363-1.153,0.927-1.386c0.184-0.076,0.376-0.115,0.573-0.115c0.197,0,0.391,0.039,0.575,0.115
      c0.37,0.153,0.658,0.442,0.811,0.812C24.018,5.62,24.008,10.365,24,14.178l0,0.076c-0.002,0.825-0.675,1.496-1.5,1.496h-1.502v6.75
      C20.998,22.913,20.662,23.249,20.248,23.249z M22.5,14.249l0-0.073c0.008-3.679,0.017-8.257-1.501-11.925l-0.001,11.998H22.5z"/>
   <path d="M2.25,23.249c-0.414,0-0.75-0.336-0.75-0.75V9.621C0.615,9.307,0,8.459,0,7.499v-6c0-0.414,0.336-0.75,0.75-0.75
      S1.5,1.086,1.5,1.499v6c0,0.414,0.336,0.75,0.75,0.75S3,7.913,3,7.499v-6c0-0.414,0.336-0.75,0.75-0.75S4.5,1.086,4.5,1.499v6
      c0,0.96-0.615,1.808-1.5,2.121v12.879C3,22.913,2.664,23.249,2.25,23.249z"/>
   <path d="M6,9.314c-0.19,0-0.372-0.072-0.511-0.201C5.342,8.977,5.258,8.791,5.251,8.591C5.243,8.39,5.315,8.2,5.451,8.053
      c0.126-0.135,0.259-0.269,0.395-0.396c1.469-1.369,3.387-2.124,5.401-2.124c2.195,0,4.31,0.918,5.802,2.519
      c0.136,0.147,0.208,0.338,0.201,0.538c-0.007,0.2-0.092,0.386-0.239,0.522c-0.139,0.13-0.321,0.201-0.511,0.201
      c-0.207,0-0.407-0.087-0.549-0.239c-1.209-1.298-2.924-2.042-4.704-2.042c-1.632,0-3.187,0.611-4.379,1.721
      C6.761,8.856,6.653,8.964,6.549,9.076C6.407,9.227,6.207,9.314,6,9.314z"/>
   <path d="M11.257,21.468c-0.095,0-0.19-0.002-0.286-0.005c-2.116-0.074-4.076-0.969-5.519-2.518
      c-0.282-0.302-0.265-0.778,0.037-1.06c0.139-0.13,0.32-0.202,0.511-0.202c0.207,0,0.407,0.087,0.549,0.239
      c1.17,1.256,2.76,1.981,4.475,2.042c0.079,0.003,0.158,0.004,0.237,0.004c1.625,0,3.177-0.613,4.37-1.725
      c0.11-0.103,0.218-0.21,0.32-0.32c0.142-0.152,0.342-0.239,0.549-0.239c0.19,0,0.372,0.072,0.511,0.201
      c0.302,0.282,0.319,0.757,0.038,1.06c-0.127,0.136-0.26,0.269-0.396,0.396C15.181,20.713,13.265,21.468,11.257,21.468z"/>
</g>
</svg>