<?xml version="1.0" encoding="utf-8"?>
<!-- Generator: Adobe Illustrator 21.0.2, SVG Export Plug-In . SVG Version: 6.00 Build 0)  -->
<svg version="1.1" id="Layer_1" xmlns="http://www.w3.org/2000/svg" xmlns:xlink="http://www.w3.org/1999/xlink" x="0px" y="0px"
	 viewBox="0 0 48.2 48.2" style="enable-background:new 0 0 48.2 48.2;" xml:space="preserve">
<style type="text/css">
	.st0{fill:#484848;stroke:#484848;stroke-width:0.25;stroke-miterlimit:10;}
</style>
<path class="st0" d="M36.1,31.8v3.4v0.5l-0.5,0.2c-0.5,0.2-1,0.4-1.3,0.8C34.1,37,33.9,37.4,34,38h7.4V24.6c0-1.1-0.1-2.3-0.3-3.4
	s-0.4-2.2-0.8-3.4c-1-2.7-2.7-4.6-5-5.7s-5.4-1.4-9-0.9c-1.4,0.2-2.8,0.4-4.2,0.6c-1.4,0.2-2.7,0.3-3.9,0.4H18l-0.2-0.1
	c-3.5-1.7-5.3-1.1-8-0.3c-0.9,0.3-1.9,0.6-3,0.9H6.7l0,0c-1.3,0.2-2.4,0.6-3.1,1.2c-0.7,0.7-1.1,1.6-1.4,2.9
	c-0.3,1.8-0.5,4.1-0.6,6.2s-0.1,4,0.1,5.3c0,0.2,0.1,0.4,0.1,0.7c0.8-1.4,2.4-2.2,4-3.2c0.9-0.5,1.9-1.1,2.8-1.8h0.3l0.4,0.1
	c0.7,0.3,1.4,0.3,2,0.2c0.5-0.1,1-0.5,1.4-1c0.2-0.3,0.3-0.4,0.4-0.5c0.9-1.3,1.9-2.7,4.3-3.8c0.6-0.3,0.9-0.6,1.1-1.1
	c0.2-0.4,0.2-1,0.1-1.6L20,16c0.2,0.8,0.1,1.6-0.2,2.3c-0.3,0.7-0.9,1.3-1.8,1.8c-1.2,0.6-2,1.2-2.6,1.8v13.2v0.5L15,35.8
	c-0.5,0.2-1,0.4-1.3,0.8c-0.2,0.3-0.4,0.7-0.3,1.3h7.4V32c-0.9-0.5-1.6-1.1-2.2-1.7l1-0.9c0.7,0.8,1.9,1.6,3.4,2.1s3.3,0.8,5.2,0.8
	s3.7-0.3,5.2-0.8s2.7-1.2,3.4-2.1l1,0.9C37.5,30.8,36.8,31.3,36.1,31.8L36.1,31.8z M22,32.6v6v0.7h-0.7h-8.6h-0.5l-0.1-0.5
	c-0.4-1.4-0.1-2.4,0.5-3c0.4-0.5,1-0.8,1.5-1V23.9c-0.1,0.2-0.2,0.3-0.2,0.4c-0.6,0.8-1.4,1.3-2.2,1.5s-1.6,0.1-2.4-0.1
	c-0.9,0.6-1.8,1.1-2.6,1.6c-2.1,1.2-4,2.3-4,4.5c0.2,0.6,0.5,1.1,0.9,1.6C4.3,34.3,5.2,35,6.4,35c1.3,0.1,2.2-0.4,2.5-1.1
	C9,33.3,9,32.7,8.8,32.2c-0.2-0.6-0.7-1-1.5-1v-1.4c1.4,0,2.3,0.8,2.8,1.9c0.3,0.9,0.3,1.9-0.2,2.7c-0.6,1.1-1.8,1.9-3.8,1.8
	c-1.7-0.1-3-1-3.9-2.2c-1.1-1.6-1.7-3.7-1.9-5.4c-0.2-1.3-0.2-3.4-0.1-5.5c0.1-2.2,0.3-4.4,0.6-6.3c0.3-1.6,0.8-2.8,1.8-3.7
	c0.9-0.9,2.2-1.4,3.8-1.6c1.1-0.3,2-0.6,2.9-0.8c2.9-0.9,4.9-1.6,8.8,0.3c1.2-0.1,2.4-0.3,3.7-0.4c1.3-0.2,2.7-0.4,4.2-0.6
	c3.9-0.6,7.2-0.2,9.8,1c3.2,1.5,4.8,3.9,6,7.2c0.4,1.3,0.9,2.6,1.4,3.6c1,2.1,2.2,3.4,4.4,2.3l0.6,1.2c-2.6,1.3-4.3,0.2-5.5-1.8
	c0,0.4,0,0.7,0,1.1v14v0.7H42h-8.6h-0.5l-0.1-0.5c-0.4-1.4-0.1-2.4,0.5-3c0.4-0.5,1-0.8,1.5-1v-2.2c-0.3,0.1-0.5,0.2-0.8,0.3
	c-1.6,0.6-3.6,0.9-5.7,0.9s-4-0.3-5.7-0.9C22.4,32.7,22.2,32.6,22,32.6L22,32.6z M6.7,16.9c0.6,0,1,0.5,1,1c0,0.6-0.5,1-1,1
	s-1-0.5-1-1S6.1,16.9,6.7,16.9z"/>
</svg>
