<?xml version="1.0" encoding="utf-8"?>
<!-- Generator: Adobe Illustrator 21.0.2, SVG Export Plug-In . SVG Version: 6.00 Build 0)  -->
<svg version="1.1" id="Layer_1" xmlns="http://www.w3.org/2000/svg" xmlns:xlink="http://www.w3.org/1999/xlink" x="0px" y="0px"
	 viewBox="0 0 48.2 48.2" style="enable-background:new 0 0 48.2 48.2;" xml:space="preserve">
<style type="text/css">
	.st0{fill:#FFFFFF;}
</style>
<path class="st0" d="M33.4,12.3V9.4c0-4.8-3.9-8.8-8.8-8.8s-8.8,3.9-8.8,8.8v2.9H5.2l1.5,26.8c0.3,4.6,4.1,8.2,8.7,8.2h18.4
	c4.6,0,8.5-3.6,8.7-8.2l1.5-26.8H33.4z M17.8,9.4c0-3.8,3.1-6.8,6.8-6.8s6.8,3.1,6.8,6.8v2.9H17.8V9.4z M40.6,38.9
	c-0.2,3.6-3.2,6.4-6.8,6.4H15.4c-3.6,0-6.6-2.8-6.8-6.4L7.2,14.2h8.7V23h1.9v-8.8h13.6V23h1.9v-8.8h8.7L40.6,38.9z"/>
</svg>
