<?xml version="1.0" encoding="utf-8"?>
<!-- Generator: Adobe Illustrator 21.0.2, SVG Export Plug-In . SVG Version: 6.00 Build 0)  -->
<svg version="1.1" id="Layer_1" xmlns="http://www.w3.org/2000/svg" xmlns:xlink="http://www.w3.org/1999/xlink" x="0px" y="0px"
	 viewBox="0 0 48.2 48.2" style="enable-background:new 0 0 48.2 48.2;" xml:space="preserve">
<style type="text/css">
	.st0{fill:#333333;}
</style>
<g>
	<g>
		<rect x="33.4" y="22.4" class="st0" width="2.7" height="3.8"/>
		<path class="st0" d="M39.5,19.5c0-0.2-0.1-0.5-0.1-0.7c-0.1-0.2-0.1-0.5-0.2-0.7c0-0.1-0.1-0.2-0.1-0.3c0-0.1-0.1-0.2-0.1-0.3
			c-0.1-0.2-0.2-0.4-0.3-0.7c-0.1-0.2-0.2-0.4-0.3-0.6c-0.2-0.4-0.4-0.8-0.6-1.2c-0.2-0.4-0.4-0.7-0.6-1.1c-0.2-0.4-0.4-0.7-0.5-1
			c-0.1-0.3-0.3-0.6-0.3-0.9c0-0.1,0-0.1,0-0.2c0-0.1,0-0.1,0-0.2c0-0.1,0-0.1,0-0.2c0-0.1,0-0.1,0-0.2c0-0.1,0-0.2,0-0.3
			c0-0.1,0.1-0.2,0.1-0.3c0-0.2,0.1-0.3,0.2-0.4c0-0.1,0.1-0.2,0.1-0.2s-0.1,0-0.1,0.1c-0.1,0.1-0.3,0.1-0.4,0.3
			c-0.1,0.1-0.2,0.2-0.3,0.3c-0.1,0.1-0.2,0.2-0.2,0.4c-0.1,0.1-0.2,0.3-0.2,0.5c0,0.1-0.1,0.2-0.1,0.3c0,0.1,0,0.2,0,0.3
			c0,0.1,0,0.2,0,0.3c0,0.1,0,0.2,0,0.3c0,0.2,0,0.4,0.1,0.6c0.1,0.4,0.2,0.9,0.3,1.3c0.1,0.2,0.2,0.4,0.2,0.6
			c0.1,0.2,0.2,0.4,0.3,0.6c0.2,0.4,0.4,0.8,0.6,1.2c0.2,0.4,0.4,0.8,0.6,1.2c0.2,0.4,0.3,0.7,0.5,1.1c0.1,0.4,0.3,0.7,0.3,1
			c0,0.2,0.1,0.3,0.1,0.5c0,0.1,0,0.2,0,0.2c0,0,0,0.1,0,0.1c0,0,0,0.1,0,0.1c0,0.1,0,0.3,0,0.4c0,0.1,0,0.3-0.1,0.4
			c0,0.1-0.1,0.2-0.1,0.4c0,0.1-0.1,0.2-0.1,0.3c-0.1,0.2-0.2,0.3-0.2,0.4c0,0.1-0.1,0.2-0.1,0.2s0.1,0,0.1-0.1c0,0,0.1-0.1,0.2-0.1
			c0.1,0,0.1-0.1,0.2-0.2c0.1-0.1,0.2-0.1,0.3-0.2c0.1-0.1,0.2-0.2,0.3-0.3c0.1-0.1,0.2-0.3,0.3-0.4c0.1-0.2,0.2-0.3,0.2-0.5
			c0,0,0-0.1,0.1-0.1c0,0,0-0.1,0-0.1c0-0.1,0-0.2,0.1-0.3c0-0.1,0-0.2,0-0.3c0-0.1,0-0.2,0-0.3c0-0.1,0-0.2,0-0.3
			C39.6,19.8,39.5,19.6,39.5,19.5z"/>
		<path class="st0" d="M24.2,0.6C11.4,0.6,1,11,1,23.8S11.4,47,24.2,47C37,47,47.4,36.6,47.4,23.8S37,0.6,24.2,0.6z M24.2,42.4
			c-10.3,0-18.6-8.4-18.6-18.6c0-4.3,1.5-8.2,3.9-11.4l10,10h-9v3.8h12.8l12.4,12.4C32.4,41,28.5,42.4,24.2,42.4z M38.8,35.3
			l-9.2-9.2h1.9v-3.8h-5.7L12.7,9.2c3.2-2.5,7.2-4,11.5-4c10.3,0,18.6,8.4,18.6,18.6C42.8,28.2,41.3,32.2,38.8,35.3z"/>
	</g>
</g>
</svg>
