<svg height="24px" width="24px" version="1.1" id="Layer_1" xmlns="http://www.w3.org/2000/svg" xmlns:xlink="http://www.w3.org/1999/xlink" x="0px" y="0px"
    viewBox="0 0 24 24" style="enable-background:new 0 0 24 24;" xml:space="preserve">
<title>spa-candle-flower</title>
<g fill="#000000">
   <path d="M16.158,24.002c-0.074,0-0.149-0.003-0.225-0.009c-0.757-0.059-1.446-0.409-1.939-0.986c-0.71-0.83-0.87-2.006-0.443-2.99
      c-0.076-0.038-0.151-0.079-0.223-0.124c-1.337-0.826-1.752-2.586-0.926-3.923c0.523-0.846,1.431-1.351,2.428-1.351
      c0.139,0,0.277,0.01,0.414,0.03c0.325-1.236,1.445-2.125,2.755-2.125c1.315,0,2.436,0.89,2.758,2.127
      c0.127-0.019,0.252-0.028,0.376-0.028l0.047,0c0.753,0.004,1.465,0.303,1.998,0.843c0.533,0.539,0.824,1.253,0.821,2.011
      c-0.003,1.087-0.612,2.057-1.553,2.534c0.275,0.622,0.319,1.314,0.12,1.971c-0.22,0.727-0.71,1.325-1.379,1.683
      c-0.411,0.22-0.873,0.336-1.337,0.336c0,0,0,0,0,0c-0.682,0-1.338-0.244-1.85-0.68C17.485,23.76,16.831,24.002,16.158,24.002z
       M14.829,16.118c-0.104,0-0.209,0.012-0.313,0.037c-0.351,0.083-0.648,0.297-0.838,0.604c-0.391,0.633-0.195,1.467,0.438,1.858
      c0.207,0.128,0.445,0.198,0.689,0.202c0.31,0.005,0.589,0.204,0.694,0.495c0.105,0.292,0.018,0.623-0.218,0.824
      c-0.563,0.481-0.629,1.331-0.148,1.894c0.233,0.272,0.559,0.438,0.916,0.466c0.038,0.003,0.075,0.004,0.111,0.004
      c0.315,0,0.623-0.115,0.866-0.323c0.128-0.109,0.232-0.239,0.311-0.386c0.131-0.245,0.385-0.396,0.661-0.396
      c0.277,0,0.531,0.152,0.661,0.396c0.234,0.437,0.689,0.709,1.187,0.709c0.219,0,0.437-0.055,0.631-0.158
      c0.316-0.169,0.548-0.452,0.652-0.795c0.104-0.344,0.068-0.707-0.101-1.023c-0.079-0.147-0.184-0.278-0.311-0.387
      c-0.234-0.201-0.322-0.53-0.219-0.82c0.104-0.291,0.38-0.491,0.688-0.499c0.735-0.02,1.312-0.611,1.313-1.346
      c0.002-0.359-0.136-0.696-0.387-0.95c-0.252-0.254-0.587-0.396-0.944-0.398c-0.256,0.005-0.504,0.073-0.707,0.198
      c-0.119,0.072-0.254,0.11-0.392,0.11c-0.151,0-0.298-0.045-0.423-0.131c-0.243-0.166-0.367-0.461-0.315-0.751
      c0.011-0.062,0.018-0.129,0.02-0.197c0-0.728-0.606-1.33-1.351-1.33s-1.35,0.606-1.35,1.35c0.002,0.049,0.009,0.116,0.019,0.176
      c0.052,0.291-0.073,0.586-0.317,0.752c-0.125,0.085-0.271,0.13-0.422,0.13c-0.139,0-0.275-0.039-0.394-0.112
      C15.322,16.188,15.077,16.118,14.829,16.118z"/>
   <circle cx="17.999" cy="18.525" r="1.125"/>
   <path d="M5.249,21c-0.671,0-1.326-0.126-1.949-0.375c-1.3-0.52-2.321-1.517-2.874-2.807S-0.145,15.1,0.375,13.8l3.16-7.911
      c0.111-0.279,0.046-0.596-0.166-0.809L2.132,3.84c-0.42-0.42-0.66-1.002-0.658-1.597C1.477,1.006,2.487,0,3.723,0h9.905
      c0.601,0,1.166,0.234,1.591,0.659c0.425,0.425,0.659,0.99,0.659,1.591c0,0.601-0.235,1.166-0.659,1.591l-1.24,1.24
      c-0.212,0.212-0.277,0.53-0.166,0.808l2.031,5.077c0.154,0.384-0.034,0.821-0.417,0.975c-0.089,0.036-0.183,0.054-0.279,0.054
      c-0.308,0-0.582-0.185-0.696-0.472L12.42,6.446c-0.335-0.836-0.139-1.789,0.498-2.426l1.24-1.24c0.142-0.142,0.22-0.33,0.22-0.531
      c0-0.2-0.078-0.389-0.219-0.53c-0.142-0.142-0.33-0.22-0.53-0.22h-9.9C3.314,1.502,2.975,1.837,2.973,2.247
      C2.973,2.446,3.053,2.64,3.193,2.78L4.43,4.021C5.066,4.658,5.262,5.61,4.928,6.446l-3.16,7.911
      C1,16.277,1.937,18.464,3.857,19.232C4.302,19.409,4.771,19.5,5.249,19.5h4.5c0.414,0,0.75,0.336,0.75,0.75S10.163,21,9.749,21
      H5.249z"/>
   <path d="M8.731,15.75c-1.92,0-3.482-1.56-3.482-3.477C5.17,11.09,5.814,9.929,6.89,9.342c0.11-0.06,0.234-0.092,0.36-0.092
      c0.116,0,0.231,0.027,0.335,0.079c0.209,0.104,0.357,0.3,0.401,0.528C8.114,9.2,7.946,8.505,7.507,7.981
      C7.297,7.73,7.273,7.375,7.449,7.098C7.587,6.88,7.823,6.75,8.082,6.75c0.064,0,0.128,0.008,0.191,0.025
      c2.489,0.65,4.143,2.983,3.93,5.548c-0.034,1.885-1.557,3.401-3.466,3.427C8.735,15.75,8.733,15.75,8.731,15.75z M7.05,11.157
      c-0.217,0.309-0.328,0.687-0.303,1.067c0.001,1.128,0.889,2.026,1.979,2.026c1.092-0.015,1.963-0.888,1.978-1.988
      c0-0.017,0.001-0.035,0.003-0.052c0.101-1.179-0.353-2.316-1.191-3.096c0.062,0.748-0.101,1.503-0.483,2.168
      c-0.124,0.216-0.346,0.356-0.595,0.374c-0.045,0.003-0.088,0.005-0.13,0.005C7.836,11.661,7.385,11.475,7.05,11.157z"/>
</g>
</svg>