<?xml version="1.0" encoding="utf-8"?>
<!-- Generator: Adobe Illustrator 21.0.2, SVG Export Plug-In . SVG Version: 6.00 Build 0)  -->
<svg version="1.1" id="Layer_1" xmlns="http://www.w3.org/2000/svg" xmlns:xlink="http://www.w3.org/1999/xlink" x="0px" y="0px"
	 viewBox="0 0 48.2 48.2" style="enable-background:new 0 0 48.2 48.2;" xml:space="preserve">
<style type="text/css">
	.st0{fill:#FFFFFF;}
</style>
<g>
	<path class="st0" d="M28.9,13L28.9,13c-3.1-1.2-6.5-1.2-9.5,0.1c-3.1,1.3-5.4,3.7-6.7,6.8c-1.2,3.1-1.2,6.5,0.1,9.5
		c1.3,3.1,3.7,5.4,6.8,6.7c1.5,0.6,3.1,0.9,4.7,0.9c1.7,0,3.3-0.3,4.9-1c3.1-1.3,5.4-3.7,6.7-6.8c1.2-3.1,1.2-6.5-0.1-9.5
		C34.4,16.7,32,14.3,28.9,13z M33.6,28.4c-1,2.5-3,4.5-5.5,5.6C25.7,35,22.9,35,20.4,34c-2.5-1-4.5-3-5.6-5.5
		c-1.1-2.5-1.1-5.3-0.1-7.8c1-2.5,3-4.5,5.5-5.6c1.3-0.5,2.6-0.8,4-0.8c1.3,0,2.6,0.2,3.8,0.7c2.5,1,4.5,3,5.6,5.5
		C34.6,23.1,34.7,25.9,33.6,28.4z"/>
	<path class="st0" d="M2.3,17.7l4.9,2c0.9,0.4,1.9-0.1,2.3-1s-0.1-1.9-1-2.3l-4.9-2c-0.9-0.4-1.9,0.1-2.3,1S1.4,17.3,2.3,17.7z"/>
	<path class="st0" d="M15.7,9.1c0.4,0.9,1.4,1.3,2.3,0.9c0.4-0.2,0.8-0.5,0.9-1c0.2-0.4,0.2-0.9,0-1.4l-2.1-4.9
		c-0.4-0.9-1.4-1.3-2.3-0.9c-0.9,0.4-1.3,1.4-0.9,2.3L15.7,9.1z"/>
	<path class="st0" d="M30.1,9.9c0.9,0.4,1.9-0.1,2.3-1l2-4.9c0.4-0.9-0.1-1.9-1-2.3c-0.9-0.4-1.9,0.1-2.3,1l-2,4.9
		C28.8,8.5,29.2,9.6,30.1,9.9z"/>
	<path class="st0" d="M41.1,19.4l4.9-2.1c0.4-0.2,0.8-0.5,0.9-1c0.2-0.4,0.2-0.9,0-1.4c-0.4-0.9-1.4-1.3-2.3-0.9l-4.9,2.1
		c-0.9,0.4-1.3,1.4-0.9,2.3C39.1,19.3,40.2,19.7,41.1,19.4z"/>
	<path class="st0" d="M46.1,31.5l-4.9-2c-0.9-0.4-1.9,0.1-2.3,1c-0.4,0.9,0.1,1.9,1,2.3l4.9,2c0.9,0.4,1.9-0.1,2.3-1
		S47,31.9,46.1,31.5z"/>
	<path class="st0" d="M32.7,40.1c-0.4-0.9-1.4-1.3-2.3-0.9c-0.9,0.4-1.3,1.4-0.9,2.3l2.1,4.9c0.4,0.9,1.4,1.3,2.3,0.9
		c0.4-0.2,0.8-0.5,0.9-1c0.2-0.4,0.2-0.9,0-1.4L32.7,40.1z"/>
	<path class="st0" d="M18.3,39.3c-0.9-0.4-1.9,0.1-2.3,1l-2,4.9c-0.4,0.9,0.1,1.9,1,2.3c0.9,0.4,1.9-0.1,2.3-1l2-4.9
		C19.6,40.7,19.2,39.6,18.3,39.3z"/>
	<path class="st0" d="M7.3,29.8l-4.9,2.1c-0.9,0.4-1.3,1.4-0.9,2.3c0.4,0.9,1.4,1.3,2.3,0.9l4.9-2.1c0.4-0.2,0.8-0.5,0.9-1
		c0.2-0.4,0.2-0.9,0-1.4C9.3,29.9,8.2,29.5,7.3,29.8z"/>
</g>
</svg>
