<?xml version="1.0" encoding="utf-8"?>
<!-- Generator: Adobe Illustrator 21.0.2, SVG Export Plug-In . SVG Version: 6.00 Build 0)  -->
<svg version="1.1" id="Layer_1" xmlns="http://www.w3.org/2000/svg" xmlns:xlink="http://www.w3.org/1999/xlink" x="0px" y="0px"
	 viewBox="0 0 48.2 48.2" style="enable-background:new 0 0 48.2 48.2;" xml:space="preserve">
<style type="text/css">
	.st0{fill:#333333;}
</style>
<g>
	<ellipse transform="matrix(0.3163 -0.9486 0.9486 0.3163 4.505 42.9871)" class="st0" cx="32.1" cy="18.4" rx="5.3" ry="5.3"/>
	<path class="st0" d="M29.1,24C29.1,24,29.1,24,29.1,24c0,0.7-0.3,1.1-0.7,1.6c1.1,0.2,2.2,0.6,3.2,1.2l0.1,0.1
		c0.1,0.1,0.2,0.1,0.3,0.2l-2.6-2.8C29.2,24.2,29.2,24.1,29.1,24z"/>
	<path class="st0" d="M33.7,27.5c0.6,0,1.1-0.1,1.7-0.4l1.7-0.8c1.2-0.6,2.4-0.9,3.7-0.9c0.6,0,1.2,0.1,1.7,0.2
		c0.5-1,0.4-2.1-0.3-2.9c-1-1-2.7-1-3.9,0.2l-4.9,4.6C33.5,27.5,33.6,27.5,33.7,27.5z"/>
	<path class="st0" d="M10,22.6l6.4-2.3l5,3.8l-3,2.7c0.7,0.2,1.3,0.4,1.9,0.7h0c0.6,0,1.2-0.2,1.8-0.5l1.1-0.6c1.2-0.7,2.6-1,4-1
		c0.3,0,0.5,0,0.7,0c0,0,0,0,0,0c0.4-0.5,0.6-1.1,0.5-1.8c-0.1-0.4-0.3-0.8-0.5-1.1l0,0c-0.2-0.2-0.9-0.8-1-0.9l-8-6
		c-0.9-0.7-2-0.9-2.9-0.6c-0.2,0-0.3,0.1-0.5,0.1l-7.1,2.5c-1.2,0.4-2.5,2.2-2,3.5C6.7,22.6,8.7,23,10,22.6z"/>
	<path class="st0" d="M46.6,33.5L43,31.6c-2-1.1-4.3-1.1-6.3-0.1L35,32.4c-1.7,0.8-3.6,0.7-5.2-0.3L29.6,32c-2.1-1.4-4.8-1.5-7-0.3
		l-1.1,0.6c-1.7,0.9-3.6,0.8-5.3-0.2c-2.2-1.3-4.8-1.4-7-0.2l-0.5,0.3c-1.8,1-3.8,0.9-5.5-0.2l-2-1.3c-0.4-0.2-0.9-0.1-1.1,0.2
		c-0.2,0.4-0.1,0.9,0.2,1.1l2,1.3c2.2,1.4,4.9,1.5,7.1,0.3l0.5-0.3c1.7-1,3.7-0.9,5.4,0.1c2.2,1.3,4.7,1.4,6.9,0.2l1.1-0.6
		c1.7-0.9,3.7-0.8,5.4,0.2l0.1,0.1c2.1,1.3,4.6,1.5,6.8,0.4l1.7-0.8c1.6-0.8,3.3-0.8,4.8,0.1l3.6,1.9c0.4,0.2,0.9,0.1,1.1-0.3
		C47.1,34.2,47,33.7,46.6,33.5z"/>
	<path class="st0" d="M47.7,29.8L44,27.9c-2-1.1-4.3-1.1-6.3-0.1l-1.7,0.8c-1.7,0.8-3.6,0.7-5.2-0.3l-0.1-0.1
		c-2.1-1.4-4.8-1.5-7-0.3l-1.1,0.6c-1.7,0.9-3.6,0.8-5.3-0.2c-2.2-1.3-4.8-1.4-7-0.2l-0.5,0.3c-1.8,1-3.8,0.9-5.5-0.2l-2-1.3
		c-0.4-0.2-0.9-0.1-1.1,0.2C1,27.5,1.1,28,1.5,28.3l2,1.3c2.2,1.4,4.9,1.5,7.1,0.3l0.5-0.3c1.7-1,3.7-0.9,5.4,0.1
		c2.2,1.3,4.7,1.4,6.9,0.2l1.1-0.6c1.7-0.9,3.7-0.8,5.4,0.2l0.1,0.1c2.1,1.3,4.6,1.5,6.8,0.4l1.7-0.8c1.6-0.8,3.3-0.8,4.8,0.1
		l3.6,1.9c0.4,0.2,0.9,0.1,1.1-0.3v0C48.2,30.5,48.1,30,47.7,29.8z"/>
</g>
</svg>
