<?xml version="1.0" encoding="utf-8"?>
<!-- Generator: Adobe Illustrator 21.0.2, SVG Export Plug-In . SVG Version: 6.00 Build 0)  -->
<svg version="1.1" id="Icons" xmlns="http://www.w3.org/2000/svg" xmlns:xlink="http://www.w3.org/1999/xlink" x="0px" y="0px"
	 viewBox="0 0 32 32" style="enable-background:new 0 0 32 32;" xml:space="preserve">
<style type="text/css">
	.st0{fill:#333;}
</style>
<g>
	<g>
		<path class="st0" d="M17.5,28.8H6.3c-0.9,0-1.7-0.8-1.7-1.7V4.7c0-0.9,0.8-1.7,1.7-1.7h12.3c0.1,0,0.3,0.1,0.4,0.2l6.7,6.7
			c0.1,0.1,0.2,0.2,0.2,0.4v7.3h-1.1v-7l-6.4-6.4H6.3C6,4.2,5.8,4.4,5.8,4.7v22.4c0,0.3,0.3,0.6,0.6,0.6h11.2V28.8z"/>
	</g>
</g>
<g>
	<g>
		<path class="st0" d="M15.3,12.6H8.6C8.3,12.6,8,12.3,8,12s0.3-0.6,0.6-0.6h6.7c0.3,0,0.6,0.3,0.6,0.6S15.6,12.6,15.3,12.6z"/>
	</g>
</g>
<g>
	<g>
		<path class="st0" d="M22,15.9H8.6c-0.3,0-0.6-0.3-0.6-0.6s0.3-0.6,0.6-0.6H22c0.3,0,0.6,0.3,0.6,0.6S22.3,15.9,22,15.9z"/>
	</g>
</g>
<g>
	<g>
		<path class="st0" d="M16.4,19.3H8.6C8.3,19.3,8,19,8,18.7s0.3-0.6,0.6-0.6h7.8c0.3,0,0.6,0.3,0.6,0.6S16.7,19.3,16.4,19.3z"/>
	</g>
</g>
<g>
	<g>
		<path class="st0" d="M16.4,22.7H8.6c-0.3,0-0.6-0.3-0.6-0.6c0-0.3,0.3-0.6,0.6-0.6h7.8c0.3,0,0.6,0.3,0.6,0.6
			C17,22.4,16.7,22.7,16.4,22.7z"/>
	</g>
</g>
<g>
	<g>
		<path class="st0" d="M19.3,28.9c-0.1,0-0.3-0.1-0.4-0.2c-0.1-0.1-0.2-0.3-0.1-0.5l0.8-3.1c0-0.1,0.1-0.2,0.1-0.3l4.6-4.6
			c0.2-0.2,0.6-0.2,0.8,0l2.3,2.3c0.2,0.2,0.2,0.6,0,0.8L22.8,28c-0.1,0.1-0.2,0.1-0.3,0.1l-3.1,0.8C19.4,28.9,19.4,28.9,19.3,28.9z
			 M20.6,25.6l-0.5,2l2-0.5l4.1-4.1l-1.5-1.5L20.6,25.6z"/>
	</g>
</g>
<g>
	<g>
		
			<rect x="20.7" y="25.3" transform="matrix(0.6915 -0.7223 0.7223 0.6915 -12.582 23.4905)" class="st0" width="1.1" height="2.4"/>
	</g>
</g>
<g>
	<g>
		<path class="st0" d="M25.4,10.9h-6.7c-0.3,0-0.6-0.3-0.6-0.6V4.2h1.1v5.6h6.2V10.9z"/>
	</g>
</g>
</svg>
