<?xml version="1.0" encoding="utf-8"?>
<!-- Generator: Adobe Illustrator 21.0.2, SVG Export Plug-In . SVG Version: 6.00 Build 0)  -->
<svg version="1.1" id="Layer_1" xmlns="http://www.w3.org/2000/svg" xmlns:xlink="http://www.w3.org/1999/xlink" x="0px" y="0px"
	 viewBox="0 0 48.2 48.2" style="enable-background:new 0 0 48.2 48.2;" xml:space="preserve">
<style type="text/css">
	.st0{fill:none;stroke:#484848;stroke-width:2;stroke-linecap:round;stroke-linejoin:round;stroke-miterlimit:10;}
</style>
<path class="st0" d="M38.7,21.7L38.7,21.7"/>
<path class="st0" d="M39,19.4v-2.1v-4.6c0-4.8-3.9-8.6-8.6-8.6h-2.8"/>
<path class="st0" d="M20.9,4.1h-2.8c-4.8,0-8.6,3.9-8.6,8.6v4.6v2.1"/>
<path class="st0" d="M9.4,24.1v6.5v0.2c0,4.8,3.9,8.6,8.6,8.6h12.3c4.8,0,8.6-3.9,8.6-8.6v-0.2v-6.5"/>
<path class="st0" d="M17.5,17.1c0.9-2.3,2.1-3.7,3.3-3.7h7.5c1.2,0,2.4,1.4,3.3,3.7"/>
<path class="st0" d="M38.7,21.7L38.7,21.7"/>
<rect x="9.4" y="17.3" class="st0" width="29.6" height="13.2"/>
<circle class="st0" cx="14.1" cy="25.8" r="1.6"/>
<circle class="st0" cx="34.9" cy="25.8" r="1.6"/>
<line class="st0" x1="17.4" y1="7.4" x2="14" y2="10.8"/>
<line class="st0" x1="19.9" y1="8.3" x2="14.8" y2="13.4"/>
<line class="st0" x1="17.6" y1="39.4" x2="9.1" y2="47.9"/>
<line class="st0" x1="30.5" y1="39.4" x2="39" y2="47.9"/>
<line class="st0" x1="15.9" y1="34.8" x2="33.2" y2="34.8"/>
<circle class="st0" cx="24.2" cy="4.1" r="3.3"/>
</svg>
