<?xml version="1.0" encoding="utf-8"?>
<!-- Generator: Adobe Illustrator 21.0.2, SVG Export Plug-In . SVG Version: 6.00 Build 0)  -->
<svg version="1.1" id="Layer_1" xmlns="http://www.w3.org/2000/svg" xmlns:xlink="http://www.w3.org/1999/xlink" x="0px" y="0px"
	 viewBox="0 0 48.2 48.2" style="enable-background:new 0 0 48.2 48.2;" xml:space="preserve">
<style type="text/css">
	.st0{fill:#0D737F;}
</style>
<g>
	<path class="st0" d="M46.1,4.7H20.9c-0.5,0-0.9,0.4-0.9,0.9v2.6H3.4c-1,0-1.9,0.8-1.9,1.9v32.5c0,1,0.8,1.9,1.9,1.9h25.2
		c1,0,1.9-0.8,1.9-1.9V39h15.6c0.5,0,0.9-0.4,0.9-0.9V5.7C47.1,5.2,46.7,4.7,46.1,4.7z M29.6,42.7c0,0.5-0.4,0.9-0.9,0.9H3.4
		c-0.5,0-0.9-0.4-0.9-0.9V10.2c0-0.5,0.4-0.9,0.9-0.9h25.2c0.5,0,0.9,0.4,0.9,0.9v32.5H29.6z M30.2,9.3h8.6c0.5,0,0.9,0.4,0.9,0.9
		V22c0,0.5-0.4,0.9-0.9,0.9h-8.4V21c0.1,0,0.2,0,0.3,0.1h2.6h0.1h0.1h2.7c0.7-0.1,1.3-0.5,1.6-1.1c0.1-0.3,0.2-0.6,0.2-0.8
		c0-0.4-0.1-0.9-0.4-1.2l-0.1-0.1c-0.4-0.5-0.9-0.9-1.5-1.2c-1.6-0.9-3.6-0.9-5.2,0c-0.2,0.1-0.3,0.2-0.5,0.3v-6.7
		C30.5,9.9,30.4,9.5,30.2,9.3z M46.1,38.2H30.5v-2.3h9.3c0.5,0,0.9-0.4,0.9-0.9s-0.4-0.9-0.9-0.9h-9.3v-1.9h9.3
		c0.5,0,0.9-0.4,0.9-0.9s-0.4-0.9-0.9-0.9h-9.3v-1.9h9.3c0.5,0,0.9-0.4,0.9-0.9s-0.4-0.9-0.9-0.9h-9.3v-2.5h8.4c1,0,1.9-0.8,1.9-1.9
		V10.2c0-1-0.8-1.9-1.9-1.9H28.2h-7.3V5.7h25.2C46.1,5.7,46.1,38.2,46.1,38.2z"/>
	<circle class="st0" cx="33.6" cy="13" r="2"/>
	<path class="st0" d="M8,37.3C7.8,37.1,7.4,37,7,37H6v3.6h1v-1.2h0.2c0.4,0,0.6-0.1,0.8-0.2c0.3-0.2,0.4-0.5,0.4-1
		C8.4,37.8,8.3,37.5,8,37.3z M7.3,38.5c-0.1,0.1-0.2,0.1-0.3,0.1v-0.8h0.1c0.1,0,0.2,0,0.3,0.1c0.1,0.1,0.1,0.2,0.1,0.3
		C7.4,38.4,7.4,38.5,7.3,38.5z"/>
	<path class="st0" d="M9.2,37l-0.9,3.6h1l0.1-0.5H10l0.1,0.5h1L10.4,37H9.2z M9.6,39.4l0.1-0.6l0.1-0.4c0,0,0,0,0-0.1
		c0,0,0-0.1,0-0.2V38v-0.1v0.3c0,0.1,0,0.1,0,0.2v0.1c0,0.2,0,0.4,0,0.4V39l0.1,0.4C9.9,39.4,9.6,39.4,9.6,39.4z"/>
	<path class="st0" d="M12.6,38.4l-0.2-0.1c-0.1-0.1-0.2-0.2-0.2-0.3s0-0.1,0.1-0.1c0,0,0.1-0.1,0.2-0.1c0.1,0,0.2,0,0.3,0.1
		s0.2,0.2,0.3,0.3v-1.1c-0.2-0.1-0.5-0.2-0.7-0.2c-0.3,0-0.5,0.1-0.7,0.2c-0.1,0.1-0.1,0.1-0.2,0.2c0,0.1-0.1,0.1-0.1,0.2
		c-0.1,0.2-0.1,0.3-0.1,0.5c0,0.1,0,0.2,0,0.3s0.1,0.2,0.1,0.2c0,0.1,0.1,0.2,0.2,0.2c0.1,0.1,0.2,0.2,0.3,0.2l0.2,0.1
		c0.1,0.1,0.2,0.2,0.2,0.3s0,0.1-0.1,0.2c-0.1,0-0.1,0.1-0.2,0.1c-0.2,0-0.4-0.1-0.6-0.4v1.1c0.3,0.1,0.5,0.1,0.7,0.1
		c0.3,0,0.6-0.1,0.8-0.3s0.3-0.5,0.3-0.8c0-0.2,0-0.4-0.1-0.5C13,38.7,12.8,38.6,12.6,38.4z"/>
	<path class="st0" d="M14.8,38.4l-0.2-0.1c-0.1-0.1-0.2-0.2-0.2-0.3s0-0.1,0.1-0.1c0,0,0.1-0.1,0.2-0.1c0.1,0,0.2,0,0.3,0.1
		s0.2,0.2,0.3,0.3v-1.1c-0.3,0-0.5-0.1-0.7-0.1c-0.3,0-0.5,0.1-0.7,0.2c-0.1,0.1-0.1,0.1-0.2,0.2c0,0.1-0.1,0.1-0.1,0.2
		c-0.1,0.2-0.1,0.3-0.1,0.5c0,0.1,0,0.2,0,0.3s0.1,0.2,0.1,0.2c0,0.1,0.1,0.2,0.2,0.2c0.1,0.1,0.2,0.2,0.3,0.2l0.2,0.1
		c0.1,0.1,0.2,0.2,0.2,0.3s0,0.1-0.1,0.2c-0.1,0-0.1,0.1-0.2,0.1c-0.2,0-0.4-0.1-0.6-0.4v1.1c0.3,0.1,0.5,0.1,0.7,0.1
		c0.3,0,0.6-0.1,0.8-0.3s0.3-0.5,0.3-0.8c0-0.2,0-0.4-0.1-0.5C15.1,38.7,15,38.6,14.8,38.4z"/>
	<path class="st0" d="M16.7,37h-0.9v3.6h1v-1.2H17c0.4,0,0.6-0.1,0.8-0.2c0.3-0.2,0.4-0.5,0.4-1c0-0.4-0.1-0.7-0.4-0.9
		C17.5,37.1,17.1,37,16.7,37z M17,38.5c-0.1,0.1-0.2,0.1-0.3,0.1v-0.8h0.1c0.1,0,0.2,0,0.3,0.1c0.1,0.1,0.1,0.2,0.1,0.3
		C17.1,38.4,17.1,38.5,17,38.5z"/>
	<path class="st0" d="M19.7,37c-0.3,0-0.6,0.1-0.9,0.4c-0.3,0.3-0.5,0.8-0.5,1.4c0,0.6,0.2,1.1,0.5,1.4c0.3,0.3,0.6,0.4,0.9,0.4
		c0.4,0,0.7-0.2,1-0.5c0.2-0.3,0.4-0.8,0.4-1.3s-0.1-1-0.4-1.3C20.5,37.2,20.1,37,19.7,37z M20,39.5c-0.1,0.2-0.1,0.2-0.3,0.2
		c-0.1,0-0.2-0.1-0.3-0.2c-0.1-0.2-0.1-0.4-0.1-0.7s0-0.5,0.1-0.7s0.2-0.2,0.3-0.2c0.2,0,0.3,0.3,0.3,0.9C20.1,39.1,20,39.3,20,39.5
		z"/>
	<path class="st0" d="M23.5,39c0.2-0.2,0.4-0.4,0.4-0.8c0-0.4-0.1-0.7-0.4-0.9c-0.2-0.2-0.5-0.3-1-0.3h-1v3.6h1v-1.2v-0.2v0.1v0.1
		l0.5,1.3h1l-0.6-1.3C23.3,39.2,23.4,39,23.5,39z M22.8,38.5c-0.1,0.1-0.2,0.1-0.3,0.1h-0.1v-0.8c0.3,0,0.5,0.1,0.5,0.4
		C22.9,38.3,22.9,38.4,22.8,38.5z"/>
	<polygon class="st0" points="24.1,37.9 24.6,37.9 24.6,40.6 25.6,40.6 25.6,37.9 26.2,37.9 26.2,37 24.1,37 	"/>
	<path class="st0" d="M16,13.4c-5.7,0-10.3,4.6-10.3,10.3S10.3,34,16,34s10.3-4.6,10.3-10.3S21.7,13.4,16,13.4z M12.3,15.1
		c-0.7,0.9-1.3,1.8-1.7,2.8c-0.4-0.3-0.8-0.6-1.1-0.9C10.3,16.2,11.2,15.5,12.3,15.1z M8.8,17.7c0.4,0.4,0.9,0.8,1.4,1.1
		c-0.5,1.4-0.8,2.9-0.9,4.4H6.7C6.8,21.1,7.6,19.2,8.8,17.7z M6.7,24.1h2.6c0.1,1.5,0.3,3,0.9,4.4c-0.5,0.3-0.9,0.7-1.4,1.1
		C7.6,28.1,6.8,26.2,6.7,24.1z M9.5,30.2c0.4-0.3,0.7-0.6,1.1-0.9c0.5,1,1,2,1.7,2.8C11.2,31.7,10.3,31.1,9.5,30.2z M15.5,32.9
		c-0.5,0-1-0.1-1.5-0.2c0,0,0-0.1-0.1-0.1c-1.1-1.1-2-2.4-2.6-3.8c1.3-0.7,2.7-1.1,4.2-1.2C15.5,27.6,15.5,32.9,15.5,32.9z
		 M15.5,26.8c-1.5,0-3.1,0.4-4.5,1.2c-0.4-1.2-0.7-2.6-0.7-3.9h5.3v2.7H15.5z M15.5,23.2h-5.3c0-1.3,0.3-2.6,0.7-3.9
		c1.4,0.7,2.9,1.1,4.5,1.2v2.7H15.5z M15.5,19.6c-1.5-0.1-2.9-0.5-4.2-1.2c0.6-1.4,1.5-2.7,2.6-3.8c0,0,0-0.1,0.1-0.1
		c0.5-0.1,1-0.2,1.5-0.2V19.6z M22.6,17c-0.4,0.3-0.7,0.6-1.1,0.9c-0.5-1-1-2-1.7-2.8C20.8,15.5,21.8,16.2,22.6,17z M16.5,14.3
		c0.5,0,1,0.1,1.5,0.2c0,0,0,0.1,0.1,0.1c1.1,1.1,2,2.4,2.6,3.8c-1.3,0.7-2.7,1.1-4.2,1.2V14.3z M16.5,20.5c1.6-0.1,3.1-0.5,4.5-1.2
		c0.4,1.2,0.7,2.5,0.7,3.9h-5.3L16.5,20.5L16.5,20.5z M16.5,24.1h5.3c0,1.3-0.3,2.6-0.7,3.9c-1.4-0.7-3-1.1-4.5-1.2L16.5,24.1
		L16.5,24.1z M18,32.7c-0.5,0.1-1,0.2-1.5,0.2v-5.2c1.4,0.1,2.9,0.5,4.2,1.2C20,30.2,19.2,31.5,18,32.7L18,32.7z M19.7,32.2
		c0.7-0.9,1.3-1.8,1.7-2.8c0.4,0.3,0.8,0.6,1.1,0.9C21.8,31.1,20.8,31.7,19.7,32.2z M23.2,29.6c-0.4-0.4-0.9-0.8-1.4-1.1
		c0.5-1.4,0.8-2.9,0.9-4.4h2.6C25.2,26.2,24.4,28.1,23.2,29.6z M22.7,23.2c-0.1-1.5-0.3-2.9-0.9-4.4c0.5-0.3,1-0.7,1.4-1.1
		c1.2,1.5,2,3.4,2.1,5.4h-2.6V23.2z"/>
</g>
</svg>
