<?xml version="1.0" encoding="utf-8"?>
<!-- Generator: Adobe Illustrator 21.0.2, SVG Export Plug-In . SVG Version: 6.00 Build 0)  -->
<svg version="1.1" id="Icons" xmlns="http://www.w3.org/2000/svg" xmlns:xlink="http://www.w3.org/1999/xlink" x="0px" y="0px"
	 viewBox="0 0 32 32" style="enable-background:new 0 0 32 32;" xml:space="preserve">
<style type="text/css">
	.st0{fill:#FFFFFF;}
</style>
<path class="st0" d="M16,21.5c-2.9,0-5-2.6-5.4-3.8c0,0-0.1,0-0.1,0c-0.2-0.1-0.3-0.2-0.4-0.3c-0.7-1.2-0.9-2.2-0.5-3
	c0.1-0.2,0.2-0.4,0.4-0.5c-0.3-0.5-0.6-1.4-0.4-2.5c0-0.3,0.3-0.5,0.6-0.5l0.1,0c0.3-0.9,1.1-2.6,3.2-3.2c0.7-0.2,1.2-0.5,1.4-1
	C15.4,5.8,15.2,5,15.2,5c-0.1-0.2,0-0.4,0.2-0.6c0.2-0.1,0.4-0.2,0.6-0.1c0.1,0,2.2,1.1,2.6,3.3c0.1,0,0.3,0,0.4,0
	c0.6,0,1.6,0.3,2.5,1.6c0.8,1.2,1,2.9,0.5,4.6c0.2,0.1,0.4,0.3,0.5,0.6c0.3,0.7,0.2,1.7-0.5,3c-0.1,0.2-0.2,0.2-0.4,0.3
	c0,0-0.1,0-0.1,0C21,19,19,21.5,16,21.5z M11,16.7C11.1,16.7,11.1,16.7,11,16.7c0.3,0.2,0.5,0.3,0.6,0.6c0.2,0.6,1.8,3.2,4.4,3.2
	c2.6,0,4.2-2.5,4.4-3.2c0.1-0.2,0.3-0.4,0.5-0.5c0,0,0.1,0,0.1,0c0.6-1.2,0.5-1.7,0.5-1.9c-0.1-0.2-0.3-0.2-0.3-0.2
	c-0.2,0-0.3-0.1-0.4-0.3c-0.1-0.1-0.1-0.3,0-0.5c0.6-1.4,0.5-3-0.2-4c-0.5-0.7-1.1-1.1-1.6-1.1c-0.4,0-0.6,0.2-0.6,0.2
	C18.2,9,18,9,17.8,8.9c-0.2-0.1-0.3-0.3-0.3-0.5c0-1.2-0.6-2-1.2-2.5c0,0.4-0.1,0.8-0.4,1.2c-0.4,0.7-1.1,1.3-2.1,1.5
	c-2.2,0.6-2.6,2.8-2.6,2.9c0,0.3-0.3,0.5-0.6,0.5l0,0c0,1.1,0.5,1.7,0.5,1.7c0.1,0.1,0.2,0.4,0.1,0.5c-0.1,0.2-0.2,0.3-0.4,0.4
	c0,0-0.2,0.1-0.3,0.3C10.5,15,10.4,15.5,11,16.7z"/>
<path class="st0" d="M26.3,28.8c-0.3,0-0.5-0.2-0.5-0.5c0-2.2-1.4-3.8-4.4-5.1c-2.4-1.1-2.4-3.2-2.3-3.3c0-0.3,0.3-0.5,0.6-0.5
	c0.3,0,0.5,0.3,0.5,0.6c0,0.1,0,1.5,1.7,2.3c3.4,1.5,5.1,3.5,5.1,6.1C26.8,28.6,26.6,28.8,26.3,28.8z"/>
<path class="st0" d="M5.7,28.8c-0.3,0-0.5-0.2-0.5-0.5c0-2.6,1.7-4.6,5.1-6.1C12,21.4,12,20,12,19.9c0-0.3,0.2-0.6,0.5-0.6
	c0.3,0,0.6,0.2,0.6,0.5c0,0.1,0.1,2.3-2.3,3.3c-3,1.3-4.4,2.9-4.4,5.1C6.3,28.6,6,28.8,5.7,28.8z"/>
<path class="st0" d="M16.1,25.6c-3.6,0-5.5-2.7-5.6-2.8c-0.2-0.3-0.1-0.6,0.1-0.8c0.3-0.2,0.6-0.1,0.8,0.1c0.1,0.1,1.6,2.3,4.7,2.3
	c2.9,0,4.3-2.2,4.3-2.2c0.2-0.3,0.5-0.4,0.8-0.2c0.3,0.2,0.4,0.5,0.2,0.8C21.3,22.9,19.7,25.6,16.1,25.6z"/>
<path class="st0" d="M16.2,27.8c-5.1,0-7.8-3.7-7.9-3.9c-0.2-0.2-0.1-0.6,0.1-0.8c0.2-0.2,0.6-0.1,0.8,0.1c0,0,2.5,3.4,7,3.4
	c4.4,0,6.3-3.2,6.4-3.4c0.2-0.3,0.5-0.3,0.8-0.2c0.3,0.2,0.4,0.5,0.2,0.8C23.5,24.1,21.2,27.8,16.2,27.8z"/>
</svg>
