<?xml version="1.0" encoding="utf-8"?>
<!-- Generator: Adobe Illustrator 21.0.2, SVG Export Plug-In . SVG Version: 6.00 Build 0)  -->
<svg version="1.1" id="Layer_1" xmlns="http://www.w3.org/2000/svg" xmlns:xlink="http://www.w3.org/1999/xlink" x="0px" y="0px"
	 viewBox="0 0 48.2 48.2" style="enable-background:new 0 0 48.2 48.2;" xml:space="preserve">
<style type="text/css">
	.st0{fill:#FFFFFF;}
</style>
<g>
	<path class="st0" d="M39.2,22.1c-0.2,0-0.3-0.1-0.5-0.2c-0.2-0.3-0.2-0.6,0-0.9c1.3-1.1,2-2.8,1.9-4.5c-0.1-3.2-2.8-5.7-6-5.7
		c-2.3,0.1-4.4,1.5-5.3,3.7c-0.1,0.3-0.5,0.5-0.8,0.3c-0.3-0.1-0.5-0.5-0.3-0.8c1-2.6,3.5-4.4,6.4-4.5c0.1,0,0.1,0,0.2,0
		c3.8,0,6.9,3,7,6.9c0.1,2.1-0.8,4.1-2.4,5.5C39.4,22,39.3,22.1,39.2,22.1z"/>
	<path class="st0" d="M34.7,9C34.3,9,34,8.7,34,8.4l-0.1-3.7c0-0.3,0.3-0.6,0.6-0.6c0.3,0,0.6,0.3,0.6,0.6l0.1,3.7
		C35.3,8.7,35,9,34.7,9z"/>
	<path class="st0" d="M47.4,16.3c0,0.3-0.3,0.6-0.6,0.6L43.2,17c-0.3,0-0.6-0.3-0.6-0.6c0-0.3,0.3-0.6,0.6-0.6l3.7-0.1
		C47.1,15.7,47.4,16,47.4,16.3z"/>
	<path class="st0" d="M43.5,7.5c0.2,0.2,0.3,0.6,0,0.9L41,11.1c-0.2,0.2-0.6,0.3-0.9,0c-0.2-0.2-0.3-0.6,0-0.9l2.5-2.7
		C42.9,7.3,43.3,7.3,43.5,7.5z"/>
	<path class="st0" d="M40.4,21.9c0.2-0.2,0.6-0.3,0.9,0l2.7,2.5c0.2,0.2,0.3,0.6,0,0.9c-0.2,0.2-0.6,0.3-0.9,0l-2.7-2.5
		C40.2,22.5,40.2,22.2,40.4,21.9z"/>
	<path class="st0" d="M25.7,8c0.2-0.2,0.6-0.3,0.9,0l2.7,2.5c0.2,0.2,0.3,0.6,0,0.9c-0.2,0.2-0.6,0.3-0.9,0l-2.7-2.5
		C25.5,8.6,25.5,8.3,25.7,8z"/>
</g>
<g>
	<path class="st0" d="M35.9,32.8H6.6c-3.1,0-5.6-2.5-5.6-5.6c0-3.1,2.5-5.6,5.6-5.6c0.5,0,1.1,0.1,1.6,0.2c1.2-2,3.3-3.2,5.6-3.3
		c0.2-3.6,3.2-6.5,6.8-6.5c2.5,0,4.7,1.3,5.9,3.5c0.2,0,0.4,0,0.6,0c3.7,0,6.7,2.9,6.8,6.6c0.6-0.2,1.2-0.3,1.9-0.3
		c3.1,0,5.6,2.5,5.6,5.6C41.5,30.3,38.9,32.8,35.9,32.8z M6.6,22.9c-2.4,0-4.4,2-4.4,4.4c0,2.4,2,4.4,4.4,4.4h29.3
		c2.4,0,4.4-2,4.4-4.4c0-2.4-2-4.4-4.4-4.4c-0.8,0-1.5,0.2-2.2,0.6l-1.1,0.6l0.1-1.2c0-0.2,0-0.4,0-0.6c0-3.1-2.5-5.6-5.6-5.6
		c-0.3,0-0.5,0-0.9,0.1l-0.4,0.1l-0.2-0.4c-1-1.9-2.9-3.2-5-3.2c-3.1,0-5.6,2.5-5.6,5.6c0,0.1,0,0.1,0,0.2l0,0.8l-0.8,0
		c-0.1,0-0.1,0-0.2,0c-2.2,0-4.1,1.2-5,3.1l-0.3,0.5l-0.5-0.2C7.7,23,7.2,22.9,6.6,22.9z"/>
</g>
<g>
	<path class="st0" d="M12.9,44.6c-0.1,0-0.2,0-0.3-0.1c-0.3-0.1-0.4-0.5-0.3-0.8l2.6-5.7c0.1-0.3,0.5-0.4,0.8-0.3
		c0.3,0.1,0.4,0.5,0.3,0.8l-2.6,5.7C13.3,44.5,13.1,44.6,12.9,44.6z"/>
	<path class="st0" d="M22.7,44.6c-0.1,0-0.2,0-0.3-0.1c-0.3-0.1-0.4-0.5-0.3-0.8l2.6-5.7c0.1-0.3,0.5-0.4,0.8-0.3
		c0.3,0.1,0.4,0.5,0.3,0.8l-2.6,5.7C23.1,44.5,22.9,44.6,22.7,44.6z"/>
	<path class="st0" d="M28.8,40.9c-0.1,0-0.2,0-0.3-0.1c-0.3-0.1-0.4-0.5-0.3-0.8l2.6-5.7c0.1-0.3,0.5-0.4,0.8-0.3
		c0.3,0.1,0.4,0.5,0.3,0.8l-2.6,5.7C29.2,40.8,29,40.9,28.8,40.9z"/>
	<path class="st0" d="M19,40.9c-0.1,0-0.2,0-0.3-0.1c-0.3-0.1-0.4-0.5-0.3-0.8l2.6-5.7c0.1-0.3,0.5-0.4,0.8-0.3
		c0.3,0.1,0.4,0.5,0.3,0.8l-2.6,5.7C19.4,40.8,19.2,40.9,19,40.9z"/>
	<path class="st0" d="M9.2,40.9c-0.1,0-0.2,0-0.3-0.1c-0.3-0.1-0.4-0.5-0.3-0.8l2.6-5.7c0.1-0.3,0.5-0.4,0.8-0.3
		c0.3,0.1,0.4,0.5,0.3,0.8l-2.6,5.7C9.6,40.8,9.4,40.9,9.2,40.9z"/>
</g>
</svg>
