<?xml version="1.0" encoding="utf-8"?>
<!-- Generator: Adobe Illustrator 21.0.2, SVG Export Plug-In . SVG Version: 6.00 Build 0)  -->
<svg version="1.1" id="Layer_1" xmlns="http://www.w3.org/2000/svg" xmlns:xlink="http://www.w3.org/1999/xlink" x="0px" y="0px"
	 viewBox="0 0 48.2 48.2" style="enable-background:new 0 0 48.2 48.2;" xml:space="preserve">
<style type="text/css">
	.st0{fill:#333333;}
</style>
<g>
	<path class="st0" d="M46.5,18L46.5,18C41,10.9,33,7,24.2,7c-9,0-17,4-22.5,11.3c-0.8,1.1-0.7,2.6,0.3,3.6c0.5,0.5,1.2,0.7,1.8,0.7
		c0.1,0,0.1,0,0.2,0c0.8-0.1,1.4-0.4,1.9-1c4.4-5.8,11.1-9.1,18.3-9.1c7.1,0,13.7,3.2,18.1,8.9c0.5,0.6,1.2,1,1.9,1
		c0.8,0.1,1.5-0.2,2.1-0.8C47.3,20.6,47.4,19.1,46.5,18z"/>
	<path class="st0" d="M24.2,18.6c-5.8,0-11.3,2.8-14.8,7.6c-0.8,1.1-0.6,2.6,0.3,3.5l0.2,0.2c0.5,0.5,1.2,0.7,1.9,0.7
		c0.1,0,0.2,0,0.2,0c0.8-0.1,1.5-0.5,1.9-1.1c2.4-3.3,6.2-5.2,10.2-5.2c4,0,7.8,1.9,10.1,5.1c0.5,0.6,1.2,1,2,1.1
		c0.8,0.1,1.5-0.2,2.1-0.8l0.2-0.2c0.9-0.9,1.1-2.4,0.3-3.5C35.4,21.4,29.9,18.6,24.2,18.6z"/>
	<circle class="st0" cx="24.2" cy="36.8" r="4.8"/>
</g>
</svg>
