<?xml version="1.0" encoding="utf-8"?>
<!-- Generator: Adobe Illustrator 21.0.2, SVG Export Plug-In . SVG Version: 6.00 Build 0)  -->
<svg version="1.1" id="Icons" xmlns="http://www.w3.org/2000/svg" xmlns:xlink="http://www.w3.org/1999/xlink" x="0px" y="0px"
	 viewBox="0 0 32 32" style="enable-background:new 0 0 32 32;" xml:space="preserve">
<style type="text/css">
	.st0{fill:#333;}
</style>
<g>
	<path class="st0" d="M69.1,22.5c-0.9-0.9-2.4-0.9-3.3,0l-2.4,2.4c-0.4,0.4-0.7,1-0.7,1.6c0,0.5,0.2,1,0.5,1.4L60.2,31
		c-0.9-0.9-2.1-1.8-3.6-2.2c-0.4-0.1-0.9-0.2-1.3-0.2c-1.5,0-3,0.7-3.9,1.8c-0.5,0.6-0.7,1.3-1,1.9c-0.2,0.5-0.4,0.9-0.6,1.3
		c-0.5,0.7-1.4,1.2-2.7,1.6c-0.3,0.1-0.7,0.2-1,0.3c-0.9,0.2-1.8,0.4-2.7,0.9c-2.5,1.2-4.3,4-4.5,6.9c-0.2,3.1,1.3,5.3,3.1,7.2l0,0
		l0.2,0.2l0,0c1.7,1.6,3.8,3.2,6.7,3.2c0.2,0,0.3,0,0.5,0c2.9-0.2,5.6-2,6.9-4.6c0.4-0.9,0.7-1.9,0.9-2.8c0.1-0.4,0.2-0.7,0.3-1
		c0.4-1.3,0.9-2.2,1.6-2.7c0.4-0.3,0.8-0.5,1.3-0.7c0.6-0.2,1.3-0.5,1.8-1c1.7-1.3,2-3.6,1.6-5.2c-0.4-1.4-1.2-2.5-2-3.5l3.1-3.1
		c0.4,0.3,0.9,0.5,1.4,0.5c0.6,0,1.2-0.2,1.6-0.7l2.4-2.4c0.4-0.4,0.7-1,0.7-1.6c0-0.6-0.3-1.2-0.7-1.6L69.1,22.5z M61.6,36.4
		c0.2,1,0.1,2.4-0.9,3.1c-0.4,0.3-0.9,0.5-1.4,0.7c-0.6,0.2-1.2,0.5-1.7,0.9c-1.1,0.8-1.8,2-2.3,3.8c-0.1,0.4-0.2,0.7-0.3,1.1
		c-0.2,0.8-0.4,1.6-0.7,2.4c-0.9,1.9-3,3.3-5.2,3.4c-2.4,0.1-4.2-1.2-5.7-2.7c-1.7-1.9-2.8-3.6-2.7-5.9c0.1-2.2,1.5-4.3,3.4-5.2
		c0.7-0.3,1.5-0.5,2.3-0.7c0.4-0.1,0.7-0.2,1.1-0.3c1.8-0.5,3-1.3,3.8-2.3c0.4-0.6,0.6-1.1,0.9-1.7c0.2-0.5,0.4-1,0.7-1.4
		c0.5-0.6,1.4-1,2.3-1c0.3,0,0.5,0,0.8,0.1c1,0.3,1.8,0.9,2.7,1.7l-2,2c-1.1-0.5-2.5-0.3-3.4,0.6c-0.6,0.6-0.9,1.3-0.9,2.1
		c0,0.5,0.1,0.9,0.3,1.3l-3.9,3.9c-0.2-0.4-0.4-0.8-0.5-1.3c-0.1-0.5-0.5-1-1.1-0.9c-0.5,0.1-0.9,0.6-0.9,1.1
		c0.3,2.5,2.4,4.6,4.9,4.9c0,0,0.1,0,0.1,0c0.5,0,0.9-0.4,1-0.9c0.1-0.5-0.3-1-0.9-1.1c-0.4-0.1-0.9-0.2-1.3-0.5l3.9-3.9
		c0.4,0.2,0.8,0.3,1.3,0.3c0.8,0,1.6-0.3,2.1-0.9c0.6-0.6,0.9-1.3,0.9-2.1c0-0.5-0.1-0.9-0.3-1.3l2-2C60.9,34.7,61.4,35.4,61.6,36.4
		z M54.8,37.8c-0.2-0.2-0.3-0.4-0.3-0.7c0-0.3,0.1-0.5,0.3-0.7s0.4-0.3,0.7-0.3c0.3,0,0.5,0.1,0.7,0.3c0.2,0.2,0.3,0.4,0.3,0.7
		c0,0.3-0.1,0.5-0.3,0.7C55.8,38.2,55.1,38.2,54.8,37.8z M68.7,25.3l-2.4,2.4c-0.1,0.1-0.3,0.2-0.4,0l-0.9-0.9
		c-0.1-0.1-0.1-0.2-0.1-0.2c0-0.1,0-0.1,0.1-0.2l2.4-2.4c0.1-0.1,0.1-0.1,0.2-0.1s0.2,0,0.2,0.1l0.9,0.9c0.1,0.1,0.1,0.2,0.1,0.2
		C68.7,25.2,68.7,25.3,68.7,25.3z"/>
</g>
<path class="st0" d="M15.2,22.9c-5.2,0-9.4-4.2-9.4-9.4s4.2-9.4,9.4-9.4s9.4,4.2,9.4,9.4S20.4,22.9,15.2,22.9z M15.2,5.2
	c-4.6,0-8.3,3.7-8.3,8.3s3.7,8.3,8.3,8.3s8.3-3.7,8.3-8.3S19.7,5.2,15.2,5.2z"/>
<path class="st0" d="M15.2,25.7c-3.1,0-6-1.1-8.2-3.2l-1.4,1.4c-0.2,0.2-0.6,0.2-0.8,0c-0.2-0.2-0.2-0.6,0-0.8l1.7-1.7
	c0.2-0.2,0.6-0.2,0.8,0c2.1,2.1,4.9,3.2,7.8,3.2c3,0,5.7-1.2,7.8-3.2c2.1-2.1,3.2-4.9,3.2-7.8S25.1,7.8,23,5.7
	c-0.1-0.1-0.2-0.2-0.2-0.4c0-0.1,0.1-0.3,0.2-0.4l1.7-1.7c0.2-0.2,0.6-0.2,0.8,0c0.2,0.2,0.2,0.6,0,0.8l-1.4,1.4
	c2.1,2.2,3.2,5.1,3.2,8.2c0,3.2-1.3,6.3-3.6,8.6C21.5,24.4,18.4,25.7,15.2,25.7z"/>
<path class="st0" d="M15.7,28.4c-0.3,0-0.6-0.2-0.6-0.6v-2.8c0-0.3,0.2-0.6,0.6-0.6c0.3,0,0.6,0.2,0.6,0.6v2.8
	C16.3,28.2,16,28.4,15.7,28.4z"/>
<path class="st0" d="M13.5,28.4c-0.3,0-0.6-0.2-0.6-0.6v-2.8c0-0.3,0.2-0.6,0.6-0.6c0.3,0,0.6,0.2,0.6,0.6v2.8
	C14.1,28.2,13.8,28.4,13.5,28.4z"/>
<path class="st0" d="M17.9,29h-6.6c-0.3,0-0.6-0.2-0.6-0.6s0.2-0.6,0.6-0.6h6.6c0.3,0,0.6,0.2,0.6,0.6S18.2,29,17.9,29z"/>
</svg>
