<?xml version="1.0" encoding="utf-8"?>
<!-- Generator: Adobe Illustrator 21.0.2, SVG Export Plug-In . SVG Version: 6.00 Build 0)  -->
<svg version="1.1" id="Layer_1" xmlns="http://www.w3.org/2000/svg" xmlns:xlink="http://www.w3.org/1999/xlink" x="0px" y="0px"
	 viewBox="0 0 48.2 48.2" style="enable-background:new 0 0 48.2 48.2;" xml:space="preserve">
<style type="text/css">
	.st0{fill:none;stroke:#333;stroke-width:0.75;stroke-linecap:round;stroke-linejoin:round;stroke-miterlimit:10;}
	.st1{fill:none;stroke:#333;stroke-width:0.75;stroke-linecap:round;stroke-miterlimit:10;}
	.st2{fill:none;stroke:#333;stroke-width:0.75;stroke-linejoin:round;stroke-miterlimit:10;}
</style>
<path class="st0" d="M30.4,22.8c10.6,0.6,16.3,2.6,16.3,2.6V42H1.6V13.2c0,0,5-6.8,21.6-6.8l2.2,6.8l1.9,0L30.4,22.8z"/>
<path class="st0" d="M1.6,34.1c10.5-2.4,34.2-2.4,45.1,0V42H1.6V34.1z"/>
<path class="st0" d="M30.4,22.8l-3.2-9.5c-24.6,0-25.7,6.2-25.7,6.2v6.2"/>
<line class="st1" x1="18.3" y1="11" x2="18.3" y2="9"/>
<line class="st0" x1="13" y1="12" x2="13" y2="10"/>
<line class="st0" x1="8.4" y1="13" x2="8.4" y2="11"/>
<line class="st0" x1="4.7" y1="14.5" x2="4.7" y2="12.5"/>
<line class="st0" x1="4" y1="22.8" x2="4" y2="19.3"/>
<path class="st0" d="M24,15.2c-1,0-1.7,0.8-1.7,1.7v3.5h3.4v-3.5C25.7,16,24.9,15.2,24,15.2z"/>
<path class="st0" d="M24,24.7c-1,0-1.7,0.8-1.7,1.7v4h3.4v-4C25.7,25.5,24.9,24.7,24,24.7z"/>
<path class="st2" d="M24,34.5c-1,0-1.7,0.8-1.7,1.7v3.5h3.4v-3.5C25.7,35.3,24.9,34.5,24,34.5z"/>
<path class="st0" d="M17.3,15.9c-0.7,0-1.3,0.6-1.3,1.3v3.5l2.7-0.2v-3.3C18.6,16.5,18.1,15.9,17.3,15.9z"/>
<path class="st0" d="M11.7,16.6c-0.7,0-1.3,0.6-1.3,1.3v3.4l2.7-0.5V18C13,17.2,12.4,16.6,11.7,16.6z"/>
<path class="st0" d="M6.2,19.2v2.9l2.1-0.4v-2.5C8.3,17.8,6.2,17.8,6.2,19.2z"/>
<line class="st0" x1="4" y1="31.8" x2="4" y2="28.2"/>
<line class="st0" x1="4" y1="39.8" x2="4" y2="35.8"/>
<path class="st0" d="M17.3,24.9c-0.7,0-1.3,0.6-1.3,1.3v4.3l2.7-0.2v-4.2C18.6,25.4,18.1,24.9,17.3,24.9z"/>
<path class="st0" d="M17.3,34.5c-0.7,0-1.3,0.6-1.3,1.3v3.9h2.7v-3.9C18.6,35.1,18.1,34.5,17.3,34.5z"/>
<path class="st0" d="M12,34.9c-0.7,0-1.3,0.6-1.3,1.3v3.5h2.7v-3.5C13.3,35.5,12.8,34.9,12,34.9z"/>
<path class="st0" d="M12,25.6c-0.7,0-1.3,0.6-1.3,1.3v3.9l2.7-0.2v-3.7C13.3,26.2,12.8,25.6,12,25.6z"/>
<path class="st0" d="M6.2,28.2v3.1l2.1-0.4v-2.7C8.3,26.8,6.2,26.8,6.2,28.2z"/>
<path class="st0" d="M6.2,36.3v3.4h2.1v-3.4C8.3,35,6.2,35,6.2,36.3z"/>
<line class="st0" x1="43.7" y1="39.8" x2="43.7" y2="35.8"/>
<path class="st0" d="M30.4,34.5c0.7,0,1.3,0.6,1.3,1.3v3.9h-2.7v-3.9C29.1,35.1,29.7,34.5,30.4,34.5z"/>
<path class="st0" d="M35.7,34.9c0.7,0,1.3,0.6,1.3,1.3v3.5h-2.7v-3.5C34.4,35.5,35,34.9,35.7,34.9z"/>
<path class="st0" d="M41.5,36.3v3.4h-2.1v-3.4C39.4,35,41.5,35,41.5,36.3z"/>
<line class="st0" x1="44.1" y1="31.8" x2="44.1" y2="28.2"/>
<path class="st0" d="M30.4,24.9c0.7,0,1.3,0.6,1.3,1.3v4.3l-2.7-0.2v-4.2C29.1,25.4,29.7,24.9,30.4,24.9z"/>
<path class="st0" d="M35.7,25.6c0.7,0,1.3,0.6,1.3,1.3v3.9l-2.7-0.2V27C34.3,26.2,34.9,25.6,35.7,25.6z"/>
<path class="st0" d="M41.6,28.2v3.1l-2.1-0.4v-2.7C39.6,26.8,41.6,26.8,41.6,28.2z"/>
<path class="st0" d="M30.4,22.8c-12.9-0.7-24,1.2-28.9,2.8"/>
</svg>
